<?xml version="1.0" encoding="UTF-8" standalone="no"?>
<!-- Created with Inkscape (http://www.inkscape.org/) -->

<svg
   xmlns:dc="http://purl.org/dc/elements/1.1/"
   xmlns:cc="http://creativecommons.org/ns#"
   xmlns:rdf="http://www.w3.org/1999/02/22-rdf-syntax-ns#"
   xmlns:svg="http://www.w3.org/2000/svg"
   xmlns="http://www.w3.org/2000/svg"
   xmlns:xlink="http://www.w3.org/1999/xlink"
   xmlns:sodipodi="http://sodipodi.sourceforge.net/DTD/sodipodi-0.dtd"
   xmlns:inkscape="http://www.inkscape.org/namespaces/inkscape"
   width="128"
   height="128"
   id="svg4543"
   sodipodi:version="0.32"
   inkscape:version="0.47pre0 r21549"
   version="1.0"
   sodipodi:docname="gnome-screenshot.svg"
   inkscape:output_extension="org.inkscape.output.svg.inkscape"
   sodipodi:modified="true">
  <defs
     id="defs4545">
    <linearGradient
       inkscape:collect="always"
       id="linearGradient4143">
      <stop
         style="stop-color:#999999;stop-opacity:1;"
         offset="0"
         id="stop4145" />
      <stop
         style="stop-color:#999999;stop-opacity:0;"
         offset="1"
         id="stop4147" />
    </linearGradient>
    <linearGradient
       id="linearGradient3478">
      <stop
         style="stop-color:#44aa00;stop-opacity:1;"
         offset="0"
         id="stop3480" />
      <stop
         style="stop-color:#abc837;stop-opacity:1;"
         offset="1"
         id="stop3482" />
    </linearGradient>
    <linearGradient
       id="linearGradient8740"
       inkscape:collect="always">
      <stop
         id="stop8742"
         offset="0"
         style="stop-color:#ffffff;stop-opacity:1;" />
      <stop
         id="stop8744"
         offset="1"
         style="stop-color:#ffffff;stop-opacity:0;" />
    </linearGradient>
    <radialGradient
       inkscape:collect="always"
       xlink:href="#linearGradient8740"
       id="radialGradient4858"
       gradientUnits="userSpaceOnUse"
       gradientTransform="matrix(1,0,0,0.930233,0,-0.240141)"
       cx="62.225391"
       cy="-3.4420195"
       fx="62.225391"
       fy="-3.4420195"
       r="10.081216" />
    <linearGradient
       inkscape:collect="always"
       id="linearGradient6111">
      <stop
         style="stop-color:#b3b3b3;stop-opacity:1;"
         offset="0"
         id="stop6113" />
      <stop
         style="stop-color:#b3b3b3;stop-opacity:0;"
         offset="1"
         id="stop6115" />
    </linearGradient>
    <linearGradient
       inkscape:collect="always"
       id="linearGradient5165">
      <stop
         style="stop-color:#ffffff;stop-opacity:1;"
         offset="0"
         id="stop5167" />
      <stop
         style="stop-color:#ffffff;stop-opacity:0;"
         offset="1"
         id="stop5169" />
    </linearGradient>
    <radialGradient
       inkscape:collect="always"
       xlink:href="#linearGradient5165"
       id="radialGradient2206"
       gradientUnits="userSpaceOnUse"
       gradientTransform="matrix(1.1211668,1.0585101,-0.9643558,1.0214394,43.144146,-61.486749)"
       cx="65.09185"
       cy="54.124912"
       fx="65.091843"
       fy="54.124912"
       r="42.964352" />
    <radialGradient
       inkscape:collect="always"
       xlink:href="#linearGradient5165"
       id="radialGradient3185"
       cx="65.468056"
       cy="56.718754"
       fx="65.468048"
       fy="56.718758"
       r="42.96875"
       gradientUnits="userSpaceOnUse"
       gradientTransform="matrix(1.1210521,1.0584018,-0.9642571,1.0213347,45.225651,-64.521398)" />
    <radialGradient
       inkscape:collect="always"
       xlink:href="#linearGradient6111"
       id="radialGradient6117"
       cx="46.165321"
       cy="41.136826"
       fx="46.165321"
       fy="41.136826"
       r="45.488403"
       gradientUnits="userSpaceOnUse"
       gradientTransform="matrix(1.5516333,0,0,1.5815088,-37.727284,-27.261977)" />
    <filter
       inkscape:collect="always"
       x="-0.1038961"
       width="1.2077922"
       y="-0.1038961"
       height="1.2077922"
       id="filter11008">
      <feGaussianBlur
         inkscape:collect="always"
         stdDeviation="4.7260679"
         id="feGaussianBlur11010" />
    </filter>
    <radialGradient
       inkscape:collect="always"
       xlink:href="#linearGradient3478"
       id="radialGradient3492"
       cx="102.51593"
       cy="101.69495"
       fx="102.51593"
       fy="101.69495"
       r="13.198329"
       gradientTransform="translate(0,6.9346245e-5)"
       gradientUnits="userSpaceOnUse" />
    <radialGradient
       inkscape:collect="always"
       xlink:href="#linearGradient3478"
       id="radialGradient3218"
       cx="95.081268"
       cy="94.544952"
       fx="95.081268"
       fy="94.544952"
       r="20.533518"
       gradientTransform="matrix(1,0,0,0.9906329,0,0.8856073)"
       gradientUnits="userSpaceOnUse" />
    <radialGradient
       inkscape:collect="always"
       xlink:href="#linearGradient4143"
       id="radialGradient4149"
       cx="91.821503"
       cy="100.97446"
       fx="91.821503"
       fy="100.97446"
       r="30.3125"
       gradientTransform="matrix(0.2233814,-0.9747311,1.0391752,0.2381503,-33.619867,153.00825)"
       gradientUnits="userSpaceOnUse" />
  </defs>
  <sodipodi:namedview
     id="base"
     pagecolor="#ffffff"
     bordercolor="#666666"
     borderopacity="1.0"
     inkscape:pageopacity="0.0"
     inkscape:pageshadow="2"
     inkscape:zoom="4"
     inkscape:cx="71.706499"
     inkscape:cy="37.841333"
     inkscape:document-units="px"
     inkscape:current-layer="layer1"
     width="128px"
     height="128px"
     inkscape:window-width="1278"
     inkscape:window-height="956"
     inkscape:window-x="0"
     inkscape:window-y="23"
     showgrid="true"
     showguides="true"
     inkscape:guide-bbox="true" />
  <metadata
     id="metadata4548">
    <rdf:RDF>
      <cc:Work
         rdf:about="">
        <dc:format>image/svg+xml</dc:format>
        <dc:type
           rdf:resource="http://purl.org/dc/dcmitype/StillImage" />
      </cc:Work>
    </rdf:RDF>
  </metadata>
  <g
     inkscape:label="Livello 1"
     inkscape:groupmode="layer"
     id="layer1">
    <rect
       style="opacity:1;fill:#666666;fill-opacity:1;stroke:none;stroke-width:0.89999998;stroke-linecap:round;stroke-linejoin:miter;stroke-miterlimit:4;stroke-dasharray:none;stroke-dashoffset:0;stroke-opacity:1;filter:url(#filter11008)"
       id="rect9046"
       width="90.976807"
       height="90.976807"
       x="20.152"
       y="11.811193"
       rx="8.7811127"
       ry="8.7811127"
       transform="matrix(1.133182,0,0,1.133182,-10.259971,-1.5730389)" />
    <rect
       style="opacity:1;fill:#000000;fill-opacity:1;stroke:none;stroke-width:0.89999998;stroke-linecap:round;stroke-linejoin:miter;stroke-miterlimit:4;stroke-dasharray:none;stroke-dashoffset:0;stroke-opacity:1"
       id="rect2510"
       width="103.09328"
       height="103.09328"
       x="12.575425"
       y="11.811361"
       rx="9.9505997"
       ry="9.9505997" />
    <rect
       style="opacity:0.17316015;fill:url(#radialGradient6117);fill-opacity:1;stroke:none;stroke-width:0.89999998;stroke-linecap:round;stroke-linejoin:miter;stroke-miterlimit:4;stroke-dasharray:none;stroke-dashoffset:0;stroke-opacity:1"
       id="rect5140"
       width="103.09328"
       height="103.09328"
       x="12.575913"
       y="11.811193"
       rx="9.9505997"
       ry="9.9505997" />
    <path
       style="fill:url(#radialGradient3492);fill-opacity:1.0;fill-rule:evenodd;stroke:none;stroke-width:1px;stroke-linecap:butt;stroke-linejoin:miter;stroke-opacity:1"
       d="M 98.011316,114.87419 L 115.71426,97.22425 L 115.71426,88.49663 L 89.317602,114.89327 L 98.011316,114.87419 z "
       id="path2522"
       sodipodi:nodetypes="ccccc" />
    <path
       style="fill:url(#radialGradient3218);fill-opacity:1.0;fill-rule:evenodd;stroke:none;stroke-width:1px;stroke-linecap:butt;stroke-linejoin:miter;stroke-opacity:1"
       d="M 83.241469,114.86705 L 115.61479,82.931391 L 115.61479,74.20377 L 74.547753,114.88613 L 83.241469,114.86705 z "
       id="path2542"
       sodipodi:nodetypes="ccccc" />
    <path
       style="opacity:0.51082255;fill:url(#radialGradient2206);fill-opacity:1;stroke:url(#radialGradient3185);stroke-width:1.01986384;stroke-linecap:round;stroke-linejoin:miter;stroke-miterlimit:4;stroke-dasharray:none;stroke-dashoffset:0;stroke-opacity:1"
       d="M 27.0288,14.008214 C 20.508303,14.008214 15.236625,19.279893 15.236625,25.80039 L 15.236625,99.598871 C 15.236625,106.11937 20.508302,111.39105 27.0288,111.39105 L 100.82729,111.39105 C 107.34778,111.39105 112.61946,106.11937 112.61946,99.598871 L 112.61946,25.80039 C 112.61946,19.279893 107.34777,14.008214 100.82729,14.008214 L 27.0288,14.008214 z M 27.0288,15.03516 L 100.82729,15.03516 C 106.80041,15.03516 111.59251,19.827256 111.59251,25.80039 L 111.59251,99.598871 C 111.59251,105.57201 106.80042,110.3641 100.82729,110.3641 L 27.0288,110.3641 C 21.055666,110.3641 16.263571,105.572 16.263571,99.598871 L 16.263571,25.80039 C 16.263571,19.827256 21.055666,15.03516 27.0288,15.03516 z "
       id="rect2512" />
    <text
       xml:space="preserve"
       style="font-size:12.87574577px;font-style:normal;font-variant:normal;font-weight:normal;font-stretch:normal;text-align:start;line-height:125%;writing-mode:lr-tb;text-anchor:start;fill:#4d4d4d;fill-opacity:1;stroke:none;stroke-width:1px;stroke-linecap:butt;stroke-linejoin:miter;stroke-opacity:1;font-family:HandelGotDLig"
       x="58.302307"
       y="26.630772"
       id="text9042"
       sodipodi:linespacing="125%"><tspan
         sodipodi:role="line"
         id="tspan9044"
         x="58.302307"
         y="26.630772">CAMERA</tspan></text>
    <text
       xml:space="preserve"
       style="font-size:12.87574577px;font-style:normal;font-variant:normal;font-weight:normal;font-stretch:normal;text-align:start;line-height:125%;writing-mode:lr-tb;text-anchor:start;fill:#ffffff;fill-opacity:1;stroke:none;stroke-width:1px;stroke-linecap:butt;stroke-linejoin:miter;stroke-opacity:1;font-family:HandelGotDLig"
       x="58.485565"
       y="26.909241"
       id="text5135"
       sodipodi:linespacing="125%"><tspan
         sodipodi:role="line"
         id="tspan5137"
         x="58.485565"
         y="26.909241">CAMERA</tspan></text>
    <g
       transform="matrix(1.596239,0,0,1.5603796,21.436586,31.801481)"
       style="fill:#000000;fill-opacity:1;fill-rule:nonzero;stroke:url(#radialGradient4858);stroke-miterlimit:4"
       id="g4854" />
    <g
       id="g3165"
       transform="translate(-1.875,-4.22537)">
      <path
         sodipodi:nodetypes="ccccsscccccccccccccsccccccccccssssssc"
         id="path3161"
         d="M 39.874176,48.774989 C 38.967563,48.809231 38.247485,49.550713 38.247485,50.465998 L 38.247485,52.312097 L 37.785958,52.312097 C 37.756671,52.312097 37.728059,52.31136 37.698948,52.312097 C 37.684626,52.31245 37.671623,52.311557 37.657332,52.312097 C 35.843814,52.380268 34.403961,53.867096 34.403961,55.697875 L 34.403961,83.83959 C 34.403961,85.71408 35.911466,87.22537 37.785958,87.22537 L 91.618,87.22537 C 93.4925,87.22537 95,85.71408 95,83.83959 L 95,55.697875 C 95,53.823383 93.49248,52.312097 91.618,52.312097 L 51.32909,52.312097 L 51.32909,50.465998 C 51.32909,49.528747 50.575332,48.774989 49.638092,48.774989 L 39.942265,48.774989 C 39.920299,48.774989 39.895934,48.774169 39.874176,48.774989 z M 82.296693,54.665118 C 82.302945,54.664577 82.309322,54.665512 82.315615,54.665118 C 82.331983,54.664089 82.348143,54.665118 82.364791,54.665118 L 90.82358,54.665118 C 91.24959,54.665118 91.5953,55.007044 91.5953,55.433073 L 91.5953,59.654894 C 91.5953,60.080912 91.24959,60.426629 90.82358,60.426629 L 82.364791,60.426629 C 81.938773,60.426629 81.596836,60.080912 81.596836,59.654894 L 81.596836,55.433073 C 81.596836,55.030089 81.902953,54.699504 82.296693,54.665118 z M 64.384212,57.464533 C 64.410269,57.463879 64.437552,57.465032 64.463652,57.464533 C 64.489855,57.464045 64.516847,57.464876 64.543091,57.464533 C 64.595996,57.463868 64.648921,57.464533 64.701981,57.464533 C 71.493705,57.464533 77.00429,62.978898 77.00429,69.77062 C 77.00429,76.56235 71.493705,82.07293 64.701981,82.07293 C 57.910257,82.07293 52.399672,76.56235 52.399672,69.77062 C 52.399672,63.084509 57.738302,57.632334 64.384212,57.464533 z "
         style="fill:#4d4d4d;fill-opacity:1;fill-rule:nonzero;stroke:none;stroke-width:1;stroke-linecap:butt;stroke-linejoin:miter;stroke-miterlimit:4;stroke-dasharray:none;stroke-dashoffset:0;stroke-opacity:1" />
      <path
         sodipodi:type="arc"
         style="fill:#4d4d4d;fill-opacity:1;fill-rule:nonzero;stroke:none;stroke-width:1;stroke-linecap:butt;stroke-linejoin:miter;stroke-miterlimit:4;stroke-dasharray:none;stroke-dashoffset:0;stroke-opacity:1"
         id="path3163"
         sodipodi:cx="-102.90819"
         sodipodi:cy="243.93053"
         sodipodi:rx="101.63772"
         sodipodi:ry="101.63772"
         d="M -1.2704697 243.93053 A 101.63772 101.63772 0 1 1  -204.54591,243.93053 A 101.63772 101.63772 0 1 1  -1.2704697 243.93053 z"
         transform="matrix(7.7929845e-2,0,0,7.7929845e-2,72.721599,50.759403)" />
    </g>
    <path
       style="fill:#ffffff;fill-opacity:1;fill-rule:nonzero;stroke:none;stroke-width:1;stroke-linecap:butt;stroke-linejoin:miter;stroke-miterlimit:4;stroke-dasharray:none;stroke-dashoffset:0;stroke-opacity:1"
       d="M 38.479701,45.072645 C 37.573088,45.106887 36.85301,45.848369 36.85301,46.763654 L 36.85301,48.609753 L 36.391483,48.609753 C 36.362196,48.609753 36.333584,48.609016 36.304473,48.609753 C 36.290151,48.610106 36.277148,48.609213 36.262857,48.609753 C 34.449339,48.677924 33.009486,50.164752 33.009486,51.995531 L 33.009486,80.137243 C 33.009486,82.011735 34.516991,83.523031 36.391483,83.523031 L 90.223529,83.523031 C 92.098021,83.523031 93.605526,82.011735 93.605526,80.137243 L 93.605526,51.995531 C 93.605526,50.121039 92.09801,48.609753 90.223529,48.609753 L 49.934615,48.609753 L 49.934615,46.763654 C 49.934615,45.826403 49.180857,45.072645 48.243617,45.072645 L 38.54779,45.072645 C 38.525824,45.072645 38.501459,45.071825 38.479701,45.072645 z M 80.902218,50.962774 C 80.90847,50.962233 80.914847,50.963168 80.92114,50.962774 C 80.937508,50.961745 80.953668,50.962774 80.970316,50.962774 L 89.429101,50.962774 C 89.855119,50.962774 90.200826,51.3047 90.200826,51.730729 L 90.200826,55.95255 C 90.200826,56.378568 89.855119,56.724285 89.429101,56.724285 L 80.970316,56.724285 C 80.544298,56.724285 80.202361,56.378568 80.202361,55.95255 L 80.202361,51.730729 C 80.202361,51.327745 80.508478,50.99716 80.902218,50.962774 z M 62.989737,53.762189 C 63.015794,53.761535 63.043077,53.762688 63.069177,53.762189 C 63.09538,53.761701 63.122372,53.762532 63.148616,53.762189 C 63.201521,53.761524 63.254446,53.762189 63.307506,53.762189 C 70.09923,53.762189 75.609815,59.276554 75.609815,66.068278 C 75.609815,72.860003 70.09923,78.370585 63.307506,78.370585 C 56.515782,78.370585 51.005197,72.860003 51.005197,66.068278 C 51.005197,59.382165 56.343827,53.92999 62.989737,53.762189 z "
       id="path1373"
       sodipodi:nodetypes="ccccsscccccccccccccsccccccccccssssssc" />
    <path
       transform="matrix(7.7929845e-2,0,0,7.7929845e-2,71.327124,47.057059)"
       d="M -1.2704697 243.93053 A 101.63772 101.63772 0 1 1  -204.54591,243.93053 A 101.63772 101.63772 0 1 1  -1.2704697 243.93053 z"
       sodipodi:ry="101.63772"
       sodipodi:rx="101.63772"
       sodipodi:cy="243.93053"
       sodipodi:cx="-102.90819"
       id="path3061"
       style="fill:#ffffff;fill-opacity:1;fill-rule:nonzero;stroke:none;stroke-width:1;stroke-linecap:butt;stroke-linejoin:miter;stroke-miterlimit:4;stroke-dasharray:none;stroke-dashoffset:0;stroke-opacity:1"
       sodipodi:type="arc" />
    <path
       style="fill:url(#radialGradient4149);fill-opacity:1.0;fill-rule:nonzero;stroke:none;stroke-width:1;stroke-linecap:butt;stroke-linejoin:miter;stroke-miterlimit:4;stroke-dasharray:none;stroke-dashoffset:0;stroke-opacity:1"
       d="M 38.509,45.0855 C 37.60239,45.119742 36.85275,45.857715 36.85275,46.773 L 36.85275,48.61675 L 36.41525,48.61675 C 36.38596,48.61675 36.35061,48.616013 36.3215,48.61675 C 36.30718,48.617103 36.30454,48.61621 36.29025,48.61675 C 34.47673,48.684921 33.009,50.192221 33.009,52.023 L 33.009,80.148 C 33.009,82.022494 34.54076,83.523 36.41525,83.523 L 90.22775,83.523 C 92.10225,83.523002 93.634,82.022492 93.634,80.148 L 93.634,52.023 C 93.634,50.148508 92.10223,48.61675 90.22775,48.61675 L 49.9465,48.61675 L 49.9465,46.773 C 49.9465,45.835749 49.19624,45.0855 48.259,45.0855 L 38.5715,45.0855 C 38.54954,45.0855 38.53076,45.08468 38.509,45.0855 z M 80.91525,50.9605 C 80.9215,50.959959 80.94021,50.960894 80.9465,50.9605 C 80.96287,50.959471 80.9611,50.9605 80.97775,50.9605 L 89.4465,50.9605 C 89.87251,50.9605 90.22775,51.315721 90.22775,51.74175 L 90.22775,55.9605 C 90.22775,56.386518 89.87251,56.74175 89.4465,56.74175 L 80.97775,56.74175 C 80.55173,56.74175 80.22775,56.386518 80.22775,55.9605 L 80.22775,51.74175 C 80.22775,51.338766 80.52151,50.994886 80.91525,50.9605 z M 63.009,53.773 C 63.03506,53.772346 63.0454,53.773499 63.0715,53.773 C 63.0977,53.772512 63.13901,53.773343 63.16525,53.773 C 63.21816,53.772335 63.26844,53.773 63.3215,53.773 C 70.11322,53.773 75.634,59.293776 75.634,66.0855 C 75.634,72.877226 70.11322,78.398 63.3215,78.398 C 56.52978,78.398 51.009,72.877225 51.009,66.0855 C 51.009,59.399388 56.36309,53.940801 63.009,53.773 z M 63.3215,58.148 C 58.94932,58.148 55.41525,61.713322 55.41525,66.0855 C 55.41525,70.457678 58.94932,73.99175 63.3215,73.99175 C 67.69368,73.99175 71.22775,70.457677 71.22775,66.0855 C 71.22775,61.713322 67.69368,58.148 63.3215,58.148 z "
       id="path3169" />
  </g>
</svg>
