<?xml version="1.0" encoding="UTF-8" standalone="no"?>
<!-- Created with Inkscape (http://www.inkscape.org/) -->

<svg
   xmlns:dc="http://purl.org/dc/elements/1.1/"
   xmlns:cc="http://creativecommons.org/ns#"
   xmlns:rdf="http://www.w3.org/1999/02/22-rdf-syntax-ns#"
   xmlns:svg="http://www.w3.org/2000/svg"
   xmlns="http://www.w3.org/2000/svg"
   xmlns:xlink="http://www.w3.org/1999/xlink"
   xmlns:sodipodi="http://sodipodi.sourceforge.net/DTD/sodipodi-0.dtd"
   xmlns:inkscape="http://www.inkscape.org/namespaces/inkscape"
   width="128"
   height="128"
   id="svg4543"
   sodipodi:version="0.32"
   inkscape:version="0.47pre0 r21549"
   version="1.0"
   sodipodi:docname="inkscape.svg"
   inkscape:output_extension="org.inkscape.output.svg.inkscape"
   sodipodi:modified="true">
  <defs
     id="defs4545">
    <linearGradient
       id="linearGradient3202">
      <stop
         style="stop-color:#5599ff;stop-opacity:1;"
         offset="0"
         id="stop3204" />
      <stop
         style="stop-color:#aaccff;stop-opacity:1;"
         offset="1"
         id="stop3206" />
    </linearGradient>
    <linearGradient
       inkscape:collect="always"
       id="linearGradient3261">
      <stop
         style="stop-color:#999999;stop-opacity:1;"
         offset="0"
         id="stop3263" />
      <stop
         style="stop-color:#999999;stop-opacity:0;"
         offset="1"
         id="stop3265" />
    </linearGradient>
    <linearGradient
       inkscape:collect="always"
       id="linearGradient6111">
      <stop
         style="stop-color:#b3b3b3;stop-opacity:1;"
         offset="0"
         id="stop6113" />
      <stop
         style="stop-color:#b3b3b3;stop-opacity:0;"
         offset="1"
         id="stop6115" />
    </linearGradient>
    <linearGradient
       inkscape:collect="always"
       id="linearGradient5165">
      <stop
         style="stop-color:#ffffff;stop-opacity:1;"
         offset="0"
         id="stop5167" />
      <stop
         style="stop-color:#ffffff;stop-opacity:0;"
         offset="1"
         id="stop5169" />
    </linearGradient>
    <radialGradient
       inkscape:collect="always"
       xlink:href="#linearGradient5165"
       id="radialGradient2206"
       gradientUnits="userSpaceOnUse"
       gradientTransform="matrix(1.1211668,1.0585101,-0.9643558,1.0214394,43.144146,-61.486749)"
       cx="65.09185"
       cy="54.124912"
       fx="65.091843"
       fy="54.124912"
       r="42.964352" />
    <radialGradient
       inkscape:collect="always"
       xlink:href="#linearGradient5165"
       id="radialGradient3185"
       cx="65.468056"
       cy="56.718754"
       fx="65.468048"
       fy="56.718758"
       r="42.96875"
       gradientUnits="userSpaceOnUse"
       gradientTransform="matrix(1.1210521,1.0584018,-0.9642571,1.0213347,45.225651,-64.521398)" />
    <radialGradient
       inkscape:collect="always"
       xlink:href="#linearGradient6111"
       id="radialGradient6117"
       cx="46.165321"
       cy="41.136826"
       fx="46.165321"
       fy="41.136826"
       r="45.488403"
       gradientUnits="userSpaceOnUse"
       gradientTransform="matrix(1.5516333,0,0,1.5815088,-37.727284,-27.261977)" />
    <filter
       inkscape:collect="always"
       x="-0.1038961"
       width="1.2077922"
       y="-0.1038961"
       height="1.2077922"
       id="filter11008">
      <feGaussianBlur
         inkscape:collect="always"
         stdDeviation="4.7260679"
         id="feGaussianBlur11010" />
    </filter>
    <radialGradient
       inkscape:collect="always"
       xlink:href="#linearGradient3261"
       id="radialGradient3269"
       cx="485.64365"
       cy="366.22186"
       fx="485.64365"
       fy="366.22186"
       r="198.41196"
       gradientTransform="matrix(0.3632062,-1.135785,1.3612173,0.4084209,-189.25269,763.44795)"
       gradientUnits="userSpaceOnUse" />
    <radialGradient
       inkscape:collect="always"
       xlink:href="#linearGradient3202"
       id="radialGradient3208"
       cx="102.51593"
       cy="101.69495"
       fx="102.51593"
       fy="101.69495"
       r="13.198329"
       gradientTransform="translate(0,6.9346245e-5)"
       gradientUnits="userSpaceOnUse" />
    <radialGradient
       inkscape:collect="always"
       xlink:href="#linearGradient3202"
       id="radialGradient3216"
       cx="95.081268"
       cy="94.544952"
       fx="95.081268"
       fy="94.544952"
       r="20.533518"
       gradientTransform="matrix(1,0,0,0.9906329,0,0.8856073)"
       gradientUnits="userSpaceOnUse" />
  </defs>
  <sodipodi:namedview
     id="base"
     pagecolor="#ffffff"
     bordercolor="#666666"
     borderopacity="1.0"
     inkscape:pageopacity="0.0"
     inkscape:pageshadow="2"
     inkscape:zoom="3.959798"
     inkscape:cx="72.504986"
     inkscape:cy="20.714359"
     inkscape:document-units="px"
     inkscape:current-layer="layer1"
     width="128px"
     height="128px"
     inkscape:window-width="1278"
     inkscape:window-height="956"
     inkscape:window-x="0"
     inkscape:window-y="23"
     showgrid="true"
     showguides="true"
     inkscape:guide-bbox="true" />
  <metadata
     id="metadata4548">
    <rdf:RDF>
      <cc:Work
         rdf:about="">
        <dc:format>image/svg+xml</dc:format>
        <dc:type
           rdf:resource="http://purl.org/dc/dcmitype/StillImage" />
      </cc:Work>
    </rdf:RDF>
  </metadata>
  <g
     inkscape:label="Livello 1"
     inkscape:groupmode="layer"
     id="layer1">
    <rect
       style="opacity:1;fill:#666666;fill-opacity:1;stroke:none;stroke-width:0.89999998;stroke-linecap:round;stroke-linejoin:miter;stroke-miterlimit:4;stroke-dasharray:none;stroke-dashoffset:0;stroke-opacity:1;filter:url(#filter11008)"
       id="rect9046"
       width="90.976807"
       height="90.976807"
       x="20.152"
       y="11.811193"
       rx="8.7811127"
       ry="8.7811127"
       transform="matrix(1.133182,0,0,1.133182,-10.259971,-1.5730389)" />
    <rect
       style="opacity:1;fill:#000000;fill-opacity:1;stroke:none;stroke-width:0.89999998;stroke-linecap:round;stroke-linejoin:miter;stroke-miterlimit:4;stroke-dasharray:none;stroke-dashoffset:0;stroke-opacity:1"
       id="rect2510"
       width="103.09328"
       height="103.09328"
       x="12.575425"
       y="11.811361"
       rx="9.9505997"
       ry="9.9505997" />
    <rect
       style="opacity:0.17316015;fill:url(#radialGradient6117);fill-opacity:1;stroke:none;stroke-width:0.89999998;stroke-linecap:round;stroke-linejoin:miter;stroke-miterlimit:4;stroke-dasharray:none;stroke-dashoffset:0;stroke-opacity:1"
       id="rect5140"
       width="103.09328"
       height="103.09328"
       x="12.575913"
       y="11.811193"
       rx="9.9505997"
       ry="9.9505997" />
    <path
       style="fill:url(#radialGradient3208);fill-opacity:1.0;fill-rule:evenodd;stroke:none;stroke-width:1px;stroke-linecap:butt;stroke-linejoin:miter;stroke-opacity:1"
       d="M 98.011316,114.87419 L 115.71426,97.22425 L 115.71426,88.49663 L 89.317602,114.89327 L 98.011316,114.87419 z "
       id="path2522"
       sodipodi:nodetypes="ccccc" />
    <path
       style="fill:url(#radialGradient3216);fill-opacity:1.0;fill-rule:evenodd;stroke:none;stroke-width:1px;stroke-linecap:butt;stroke-linejoin:miter;stroke-opacity:1"
       d="M 83.241469,114.86705 L 115.61479,82.931391 L 115.61479,74.20377 L 74.547753,114.88613 L 83.241469,114.86705 z "
       id="path2542"
       sodipodi:nodetypes="ccccc" />
    <path
       style="opacity:0.51082255;fill:url(#radialGradient2206);fill-opacity:1;stroke:url(#radialGradient3185);stroke-width:1.01986384;stroke-linecap:round;stroke-linejoin:miter;stroke-miterlimit:4;stroke-dasharray:none;stroke-dashoffset:0;stroke-opacity:1"
       d="M 27.0288,14.008214 C 20.508303,14.008214 15.236625,19.279893 15.236625,25.80039 L 15.236625,99.598871 C 15.236625,106.11937 20.508302,111.39105 27.0288,111.39105 L 100.82729,111.39105 C 107.34778,111.39105 112.61946,106.11937 112.61946,99.598871 L 112.61946,25.80039 C 112.61946,19.279893 107.34777,14.008214 100.82729,14.008214 L 27.0288,14.008214 z M 27.0288,15.03516 L 100.82729,15.03516 C 106.80041,15.03516 111.59251,19.827256 111.59251,25.80039 L 111.59251,99.598871 C 111.59251,105.57201 106.80042,110.3641 100.82729,110.3641 L 27.0288,110.3641 C 21.055666,110.3641 16.263571,105.572 16.263571,99.598871 L 16.263571,25.80039 C 16.263571,19.827256 21.055666,15.03516 27.0288,15.03516 z "
       id="rect2512" />
    <text
       xml:space="preserve"
       style="font-size:12.87574577px;font-style:normal;font-variant:normal;font-weight:normal;font-stretch:normal;text-align:start;line-height:125%;writing-mode:lr-tb;text-anchor:start;fill:#4d4d4d;fill-opacity:1;stroke:none;stroke-width:1px;stroke-linecap:butt;stroke-linejoin:miter;stroke-opacity:1;font-family:HandelGotDLig"
       x="47.242382"
       y="26.630772"
       id="text9042"
       sodipodi:linespacing="125%"><tspan
         sodipodi:role="line"
         id="tspan9044"
         x="47.242382"
         y="26.630772">INKSCAPE</tspan></text>
    <text
       xml:space="preserve"
       style="font-size:12.87574577px;font-style:normal;font-variant:normal;font-weight:normal;font-stretch:normal;text-align:start;line-height:125%;writing-mode:lr-tb;text-anchor:start;fill:#ffffff;fill-opacity:1;stroke:none;stroke-width:1px;stroke-linecap:butt;stroke-linejoin:miter;stroke-opacity:1;font-family:HandelGotDLig"
       x="47.425636"
       y="26.909241"
       id="text5135"
       sodipodi:linespacing="125%"><tspan
         sodipodi:role="line"
         id="tspan5137"
         x="47.425636"
         y="26.909241">INKSCAPE</tspan></text>
    <g
       id="g2272"
       transform="matrix(0.1439106,0,0,0.14857,12.936335,34.308308)"
       style="fill:#4d4d4d">
      <path
         style="font-size:12px;fill:#4d4d4d;fill-opacity:1;fill-rule:evenodd;stroke-width:1pt"
         d="M 476.95792,339.17168 C 495.78197,342.93607 499.54842,356.11361 495.78197,359.87802 C 492.01856,363.6434 482.6065,367.40781 475.07663,361.76014 C 467.54478,356.11361 467.54478,342.93607 476.95792,339.17168 z "
         id="path2274" />
      <path
         style="font-size:12px;fill:#4d4d4d;fill-opacity:1;fill-rule:evenodd;stroke-width:1pt"
         d="M 286.46194,340.42914 C 284.6277,340.91835 269.30405,327.71337 257.16909,333.8338 C 245.03722,339.95336 236.89276,353.65666 248.22676,359.27982 C 259.56184,364.90298 267.66433,358.41867 277.60113,351.44119 C 287.53903,344.46477 287.18046,343.1206 286.46194,340.42914 z "
         id="path2276" />
      <path
         style="font-size:12px;fill:#4d4d4d;fill-opacity:1;fill-rule:evenodd;stroke-width:1pt"
         d="M 510.35756,306.92856 C 520.59494,304.36879 544.24333,306.92856 540.47688,321.98634 C 536.71354,337.04806 504.71297,331.39827 484.00371,323.87156 C 482.12141,308.81083 505.53237,308.13423 510.35756,306.92856 z "
         id="path2278" />
      <path
         style="font-size:12px;fill:#4d4d4d;fill-opacity:1;fill-rule:evenodd;stroke-width:1pt"
         d="M 359.2403,21.362537 C 347.92693,21.362537 336.6347,25.683095 327.96556,34.35223 L 173.87387,188.41466 C 165.37697,196.9114 161.1116,207.95813 160.94269,219.04577 L 160.88418,219.04577 C 160.88418,219.08524 160.94076,219.12322 160.94269,219.16279 C 160.94033,219.34888 160.88418,219.53256 160.88418,219.71865 L 161.14748,219.71865 C 164.0966,230.93917 240.29699,245.24198 248.79866,253.74346 C 261.63771,266.58263 199.5652,276.01151 212.4041,288.85074 C 225.24316,301.68979 289.99433,313.6933 302.8346,326.53254 C 315.67368,339.37161 276.5961,353.04289 289.43532,365.88196 C 302.27439,378.72118 345.40201,362.67257 337.5908,396.16198 C 354.92909,413.50026 391.10302,405.2208 415.32417,387.88252 C 428.16323,375.04345 390.6948,376.17577 403.53397,363.33668 C 416.37304,350.49745 448.78128,350.4282 476.08902,319.71589 C 465.09739,302.62116 429.10801,295.34136 441.94719,282.50217 C 454.78625,269.66311 479.74708,276.18423 533.60644,251.72479 C 559.89837,239.78398 557.72636,230.71459 557.62567,219.71865 C 557.62356,219.48727 557.62567,219.27892 557.62567,219.04577 L 557.56716,219.04577 C 557.3983,207.95812 553.10345,196.9114 544.60673,188.41466 L 390.54428,34.35223 C 381.87515,25.683095 370.55366,21.362537 359.2403,21.362537 z "
         id="path2280"
         sodipodi:nodetypes="cccccsccssssccscsssccccc" />
    </g>
    <g
       id="g839"
       transform="matrix(0.1439106,0,0,0.14857,13.132756,34.826168)"
       style="fill:#ffffff">
      <path
         style="font-size:12px;fill:#ffffff;fill-opacity:1;fill-rule:evenodd;stroke-width:1pt"
         d="M 476.95792,339.17168 C 495.78197,342.93607 499.54842,356.11361 495.78197,359.87802 C 492.01856,363.6434 482.6065,367.40781 475.07663,361.76014 C 467.54478,356.11361 467.54478,342.93607 476.95792,339.17168 z "
         id="droplet01" />
      <path
         style="font-size:12px;fill:#ffffff;fill-opacity:1;fill-rule:evenodd;stroke-width:1pt"
         d="M 286.46194,340.42914 C 284.6277,340.91835 269.30405,327.71337 257.16909,333.8338 C 245.03722,339.95336 236.89276,353.65666 248.22676,359.27982 C 259.56184,364.90298 267.66433,358.41867 277.60113,351.44119 C 287.53903,344.46477 287.18046,343.1206 286.46194,340.42914 z "
         id="droplet02" />
      <path
         style="font-size:12px;fill:#ffffff;fill-opacity:1;fill-rule:evenodd;stroke-width:1pt"
         d="M 510.35756,306.92856 C 520.59494,304.36879 544.24333,306.92856 540.47688,321.98634 C 536.71354,337.04806 504.71297,331.39827 484.00371,323.87156 C 482.12141,308.81083 505.53237,308.13423 510.35756,306.92856 z "
         id="droplet03" />
      <path
         style="font-size:12px;fill:#ffffff;fill-opacity:1;fill-rule:evenodd;stroke-width:1pt"
         d="M 359.2403,21.362537 C 347.92693,21.362537 336.6347,25.683095 327.96556,34.35223 L 173.87387,188.41466 C 165.37697,196.9114 161.1116,207.95813 160.94269,219.04577 L 160.88418,219.04577 C 160.88418,219.08524 160.94076,219.12322 160.94269,219.16279 C 160.94033,219.34888 160.88418,219.53256 160.88418,219.71865 L 161.14748,219.71865 C 164.0966,230.93917 240.29699,245.24198 248.79866,253.74346 C 261.63771,266.58263 199.5652,276.01151 212.4041,288.85074 C 225.24316,301.68979 289.99433,313.6933 302.8346,326.53254 C 315.67368,339.37161 276.5961,353.04289 289.43532,365.88196 C 302.27439,378.72118 345.40201,362.67257 337.5908,396.16198 C 354.92909,413.50026 391.10302,405.2208 415.32417,387.88252 C 428.16323,375.04345 390.6948,376.17577 403.53397,363.33668 C 416.37304,350.49745 448.78128,350.4282 476.08902,319.71589 C 465.09739,302.62116 429.10801,295.34136 441.94719,282.50217 C 454.78625,269.66311 479.74708,276.18423 533.60644,251.72479 C 559.89837,239.78398 557.72636,230.71459 557.62567,219.71865 C 557.62356,219.48727 557.62567,219.27892 557.62567,219.04577 L 557.56716,219.04577 C 557.3983,207.95812 553.10345,196.9114 544.60673,188.41466 L 390.54428,34.35223 C 381.87515,25.683095 370.55366,21.362537 359.2403,21.362537 z "
         id="mountainDroplet"
         sodipodi:nodetypes="cccccsccssssccscsssccccc" />
    </g>
    <g
       id="g2282"
       transform="matrix(0.1439106,0,0,0.14857,13.133061,34.826021)"
       style="fill:url(#radialGradient3269);fill-opacity:1.0">
      <path
         style="font-size:12px;fill:url(#radialGradient3269);fill-opacity:1.0;fill-rule:evenodd;stroke-width:1pt"
         d="M 476.95792,339.17168 C 495.78197,342.93607 499.54842,356.11361 495.78197,359.87802 C 492.01856,363.6434 482.6065,367.40781 475.07663,361.76014 C 467.54478,356.11361 467.54478,342.93607 476.95792,339.17168 z "
         id="path2284" />
      <path
         style="font-size:12px;fill:url(#radialGradient3269);fill-opacity:1.0;fill-rule:evenodd;stroke-width:1pt"
         d="M 286.46194,340.42914 C 284.6277,340.91835 269.30405,327.71337 257.16909,333.8338 C 245.03722,339.95336 236.89276,353.65666 248.22676,359.27982 C 259.56184,364.90298 267.66433,358.41867 277.60113,351.44119 C 287.53903,344.46477 287.18046,343.1206 286.46194,340.42914 z "
         id="path2286" />
      <path
         style="font-size:12px;fill:url(#radialGradient3269);fill-opacity:1.0;fill-rule:evenodd;stroke-width:1pt"
         d="M 510.35756,306.92856 C 520.59494,304.36879 544.24333,306.92856 540.47688,321.98634 C 536.71354,337.04806 504.71297,331.39827 484.00371,323.87156 C 482.12141,308.81083 505.53237,308.13423 510.35756,306.92856 z "
         id="path2288" />
      <path
         style="font-size:12px;fill:url(#radialGradient3269);fill-opacity:1.0;fill-rule:evenodd;stroke-width:1pt"
         d="M 359.2403,21.362537 C 347.92693,21.362537 336.6347,25.683095 327.96556,34.35223 L 173.87387,188.41466 C 165.37697,196.9114 161.1116,207.95813 160.94269,219.04577 L 160.88418,219.04577 C 160.88418,219.08524 160.94076,219.12322 160.94269,219.16279 C 160.94033,219.34888 160.88418,219.53256 160.88418,219.71865 L 161.14748,219.71865 C 164.0966,230.93917 240.29699,245.24198 248.79866,253.74346 C 261.63771,266.58263 199.5652,276.01151 212.4041,288.85074 C 225.24316,301.68979 289.99433,313.6933 302.8346,326.53254 C 315.67368,339.37161 276.5961,353.04289 289.43532,365.88196 C 302.27439,378.72118 345.40201,362.67257 337.5908,396.16198 C 354.92909,413.50026 391.10302,405.2208 415.32417,387.88252 C 428.16323,375.04345 390.6948,376.17577 403.53397,363.33668 C 416.37304,350.49745 448.78128,350.4282 476.08902,319.71589 C 465.09739,302.62116 429.10801,295.34136 441.94719,282.50217 C 454.78625,269.66311 479.74708,276.18423 533.60644,251.72479 C 559.89837,239.78398 557.72636,230.71459 557.62567,219.71865 C 557.62356,219.48727 557.62567,219.27892 557.62567,219.04577 L 557.56716,219.04577 C 557.3983,207.95812 553.10345,196.9114 544.60673,188.41466 L 390.54428,34.35223 C 381.87515,25.683095 370.55366,21.362537 359.2403,21.362537 z "
         id="path2290"
         sodipodi:nodetypes="cccccsccssssccscsssccccc" />
    </g>
  </g>
</svg>
