<?xml version="1.0" encoding="UTF-8" standalone="no"?>
<!-- Created with Inkscape (http://www.inkscape.org/) -->

<svg
   xmlns:dc="http://purl.org/dc/elements/1.1/"
   xmlns:cc="http://creativecommons.org/ns#"
   xmlns:rdf="http://www.w3.org/1999/02/22-rdf-syntax-ns#"
   xmlns:svg="http://www.w3.org/2000/svg"
   xmlns="http://www.w3.org/2000/svg"
   xmlns:xlink="http://www.w3.org/1999/xlink"
   xmlns:sodipodi="http://sodipodi.sourceforge.net/DTD/sodipodi-0.dtd"
   xmlns:inkscape="http://www.inkscape.org/namespaces/inkscape"
   width="128"
   height="128"
   id="svg4543"
   sodipodi:version="0.32"
   inkscape:version="0.47pre0 r21549"
   version="1.0"
   sodipodi:docname="gedit.svg"
   inkscape:output_extension="org.inkscape.output.svg.inkscape"
   sodipodi:modified="true">
  <defs
     id="defs4545">
    <linearGradient
       inkscape:collect="always"
       id="linearGradient4345">
      <stop
         style="stop-color:#cccccc;stop-opacity:1;"
         offset="0"
         id="stop4347" />
      <stop
         style="stop-color:#cccccc;stop-opacity:0;"
         offset="1"
         id="stop4349" />
    </linearGradient>
    <linearGradient
       id="linearGradient3190">
      <stop
         style="stop-color:#ff660f;stop-opacity:0.94117647;"
         offset="0"
         id="stop3192" />
      <stop
         style="stop-color:#ff9955;stop-opacity:1;"
         offset="1"
         id="stop3194" />
    </linearGradient>
    <linearGradient
       inkscape:collect="always"
       id="linearGradient6111">
      <stop
         style="stop-color:#b3b3b3;stop-opacity:1;"
         offset="0"
         id="stop6113" />
      <stop
         style="stop-color:#b3b3b3;stop-opacity:0;"
         offset="1"
         id="stop6115" />
    </linearGradient>
    <linearGradient
       inkscape:collect="always"
       id="linearGradient5165">
      <stop
         style="stop-color:#ffffff;stop-opacity:1;"
         offset="0"
         id="stop5167" />
      <stop
         style="stop-color:#ffffff;stop-opacity:0;"
         offset="1"
         id="stop5169" />
    </linearGradient>
    <radialGradient
       inkscape:collect="always"
       xlink:href="#linearGradient5165"
       id="radialGradient2206"
       gradientUnits="userSpaceOnUse"
       gradientTransform="matrix(1.1211668,1.0585101,-0.9643558,1.0214394,43.144146,-61.486749)"
       cx="65.09185"
       cy="54.124912"
       fx="65.091843"
       fy="54.124912"
       r="42.964352" />
    <radialGradient
       inkscape:collect="always"
       xlink:href="#linearGradient5165"
       id="radialGradient3185"
       cx="65.468056"
       cy="56.718754"
       fx="65.468048"
       fy="56.718758"
       r="42.96875"
       gradientUnits="userSpaceOnUse"
       gradientTransform="matrix(1.1210521,1.0584018,-0.9642571,1.0213347,45.225651,-64.521398)" />
    <radialGradient
       inkscape:collect="always"
       xlink:href="#linearGradient6111"
       id="radialGradient6117"
       cx="46.165321"
       cy="41.136826"
       fx="46.165321"
       fy="41.136826"
       r="45.488403"
       gradientUnits="userSpaceOnUse"
       gradientTransform="matrix(1.5516333,0,0,1.5815088,-37.727284,-27.261977)" />
    <filter
       inkscape:collect="always"
       x="-0.1038961"
       width="1.2077922"
       y="-0.1038961"
       height="1.2077922"
       id="filter11008">
      <feGaussianBlur
         inkscape:collect="always"
         stdDeviation="4.7260679"
         id="feGaussianBlur11010" />
    </filter>
    <radialGradient
       inkscape:collect="always"
       xlink:href="#linearGradient3190"
       id="radialGradient4315"
       cx="102.51593"
       cy="101.69495"
       fx="102.51593"
       fy="101.69495"
       r="13.198329"
       gradientTransform="translate(0,6.9346245e-5)"
       gradientUnits="userSpaceOnUse" />
    <radialGradient
       inkscape:collect="always"
       xlink:href="#linearGradient3190"
       id="radialGradient3196"
       cx="95.081271"
       cy="94.54495"
       fx="95.081271"
       fy="94.54495"
       r="20.533518"
       gradientTransform="matrix(1,0,0,0.9906329,0,0.8856073)"
       gradientUnits="userSpaceOnUse" />
    <radialGradient
       inkscape:collect="always"
       xlink:href="#linearGradient4345"
       id="radialGradient4351"
       cx="70.839676"
       cy="79.966812"
       fx="70.839676"
       fy="79.966812"
       r="24.624531"
       gradientTransform="matrix(-0.3692314,-0.9293375,1.2306661,-0.4889511,-1.4165389,186.79364)"
       gradientUnits="userSpaceOnUse" />
  </defs>
  <sodipodi:namedview
     id="base"
     pagecolor="#ffffff"
     bordercolor="#666666"
     borderopacity="1.0"
     inkscape:pageopacity="0.0"
     inkscape:pageshadow="2"
     inkscape:zoom="3.959798"
     inkscape:cx="152.12026"
     inkscape:cy="55.016137"
     inkscape:document-units="px"
     inkscape:current-layer="layer1"
     width="128px"
     height="128px"
     inkscape:window-width="1278"
     inkscape:window-height="956"
     inkscape:window-x="0"
     inkscape:window-y="23"
     showgrid="true"
     showguides="true"
     inkscape:guide-bbox="true" />
  <metadata
     id="metadata4548">
    <rdf:RDF>
      <cc:Work
         rdf:about="">
        <dc:format>image/svg+xml</dc:format>
        <dc:type
           rdf:resource="http://purl.org/dc/dcmitype/StillImage" />
      </cc:Work>
    </rdf:RDF>
  </metadata>
  <g
     inkscape:label="Livello 1"
     inkscape:groupmode="layer"
     id="layer1">
    <rect
       style="opacity:1;fill:#666666;fill-opacity:1;stroke:none;stroke-width:0.89999998;stroke-linecap:round;stroke-linejoin:miter;stroke-miterlimit:4;stroke-dasharray:none;stroke-dashoffset:0;stroke-opacity:1;filter:url(#filter11008)"
       id="rect9046"
       width="90.976807"
       height="90.976807"
       x="20.152"
       y="11.811193"
       rx="8.7811127"
       ry="8.7811127"
       transform="matrix(1.133182,0,0,1.133182,-10.259971,-1.5730389)" />
    <rect
       style="opacity:1;fill:#000000;fill-opacity:1;stroke:none;stroke-width:0.89999998;stroke-linecap:round;stroke-linejoin:miter;stroke-miterlimit:4;stroke-dasharray:none;stroke-dashoffset:0;stroke-opacity:1"
       id="rect2510"
       width="103.09328"
       height="103.09328"
       x="12.575425"
       y="11.811361"
       rx="9.9505997"
       ry="9.9505997" />
    <rect
       style="opacity:0.17316015;fill:url(#radialGradient6117);fill-opacity:1;stroke:none;stroke-width:0.89999998;stroke-linecap:round;stroke-linejoin:miter;stroke-miterlimit:4;stroke-dasharray:none;stroke-dashoffset:0;stroke-opacity:1"
       id="rect5140"
       width="103.09328"
       height="103.09328"
       x="12.575913"
       y="11.811193"
       rx="9.9505997"
       ry="9.9505997" />
    <path
       style="fill:url(#radialGradient4315);fill-opacity:1.0;fill-rule:evenodd;stroke:none;stroke-width:1px;stroke-linecap:butt;stroke-linejoin:miter;stroke-opacity:1"
       d="M 98.011316,114.87419 L 115.71426,97.22425 L 115.71426,88.49663 L 89.317602,114.89327 L 98.011316,114.87419 z "
       id="path2522"
       sodipodi:nodetypes="ccccc" />
    <path
       style="fill:url(#radialGradient3196);fill-opacity:1.0;fill-rule:evenodd;stroke:none;stroke-width:1px;stroke-linecap:butt;stroke-linejoin:miter;stroke-opacity:1"
       d="M 83.241469,114.86705 L 115.61479,82.931391 L 115.61479,74.20377 L 74.547753,114.88613 L 83.241469,114.86705 z "
       id="path2542"
       sodipodi:nodetypes="ccccc" />
    <path
       style="opacity:0.51082255;fill:url(#radialGradient2206);fill-opacity:1;stroke:url(#radialGradient3185);stroke-width:1.01986384;stroke-linecap:round;stroke-linejoin:miter;stroke-miterlimit:4;stroke-dasharray:none;stroke-dashoffset:0;stroke-opacity:1"
       d="M 27.0288,14.008214 C 20.508303,14.008214 15.236625,19.279893 15.236625,25.80039 L 15.236625,99.598871 C 15.236625,106.11937 20.508302,111.39105 27.0288,111.39105 L 100.82729,111.39105 C 107.34778,111.39105 112.61946,106.11937 112.61946,99.598871 L 112.61946,25.80039 C 112.61946,19.279893 107.34777,14.008214 100.82729,14.008214 L 27.0288,14.008214 z M 27.0288,15.03516 L 100.82729,15.03516 C 106.80041,15.03516 111.59251,19.827256 111.59251,25.80039 L 111.59251,99.598871 C 111.59251,105.57201 106.80042,110.3641 100.82729,110.3641 L 27.0288,110.3641 C 21.055666,110.3641 16.263571,105.572 16.263571,99.598871 L 16.263571,25.80039 C 16.263571,19.827256 21.055666,15.03516 27.0288,15.03516 z "
       id="rect2512" />
    <text
       xml:space="preserve"
       style="font-size:12.87574577px;font-style:normal;font-variant:normal;font-weight:normal;font-stretch:normal;text-align:start;line-height:125%;writing-mode:lr-tb;text-anchor:start;fill:#4d4d4d;fill-opacity:1;stroke:none;stroke-width:1px;stroke-linecap:butt;stroke-linejoin:miter;stroke-opacity:1;font-family:HandelGotDLig"
       x="76.170952"
       y="26.630772"
       id="text9042"
       sodipodi:linespacing="125%"><tspan
         sodipodi:role="line"
         id="tspan9044"
         x="76.170952"
         y="26.630772">GEDIT</tspan></text>
    <text
       xml:space="preserve"
       style="font-size:12.87574577px;font-style:normal;font-variant:normal;font-weight:normal;font-stretch:normal;text-align:start;line-height:125%;writing-mode:lr-tb;text-anchor:start;fill:#ffffff;fill-opacity:1;stroke:none;stroke-width:1px;stroke-linecap:butt;stroke-linejoin:miter;stroke-opacity:1;font-family:HandelGotDLig"
       x="76.35421"
       y="26.909241"
       id="text5135"
       sodipodi:linespacing="125%"><tspan
         sodipodi:role="line"
         id="tspan5137"
         x="76.35421"
         y="26.909241">GEDIT</tspan></text>
    <path
       style="fill:#666666;fill-opacity:1;stroke:none;stroke-width:0.76891589;stroke-miterlimit:4"
       d="M 58.966512,37.89981 L 57.274897,38.976292 L 56.736656,40.514124 L 58.043813,41.513715 L 56.813548,42.128848 L 54.122342,40.591016 L 50.969787,40.744799 L 49.20128,42.667089 L 48.970606,44.743162 L 50.200871,45.435186 L 48.393919,46.357885 L 46.433183,45.050728 L 43.049953,45.281403 L 41.742796,46.896126 L 41.512121,48.741524 L 42.434821,49.318211 L 38.052,51.509622 L 38.052,90.72433 L 41.127664,89.1865 L 41.127664,92.26216 L 44.203327,90.72433 L 44.203327,93.8 L 71.115384,80.34397 L 71.115384,61.62087 L 81.726423,50.663814 L 85.032761,46.627006 L 86.801268,44.39715 L 87.301063,42.974655 L 87.14728,41.590607 L 86.070798,40.129666 L 84.609858,39.36075 L 83.110472,39.245413 L 81.84176,40.014329 L 79.765687,42.47486 L 79.727242,42.513306 L 79.688796,42.47486 L 79.65035,42.590197 L 76.151783,46.434777 L 76.151783,46.473222 L 76.113337,46.511668 L 71.115384,51.932525 L 71.115384,41.129257 L 68.03972,42.667089 L 68.03972,39.591425 L 65.194731,41.01392 L 64.964056,40.55257 L 64.964056,38.053593 L 63.157104,38.976292 L 62.503526,38.514943 L 58.966512,37.89981 z "
       id="path3372" />
    <path
       style="fill:#ffffff;fill-opacity:1;stroke:none;stroke-width:0.76891589;stroke-miterlimit:4"
       d="M 59.553859,38 L 57.862244,39.076482 L 57.324003,40.614314 L 58.63116,41.613905 L 57.400895,42.229038 L 54.709689,40.691206 L 51.557134,40.844989 L 49.788627,42.767279 L 49.557953,44.843352 L 50.788218,45.535376 L 48.981266,46.458075 L 47.02053,45.150918 L 43.6373,45.381593 L 42.330143,46.996316 L 42.099468,48.841714 L 43.022168,49.418401 L 38.639347,51.609812 L 38.639347,90.824522 L 41.715011,89.286691 L 41.715011,92.362354 L 44.790674,90.824522 L 44.790674,93.900186 L 71.702731,80.444158 L 71.702731,61.721056 L 82.31377,50.764004 L 85.620108,46.727196 L 87.388615,44.49734 L 87.88841,43.074845 L 87.734627,41.690797 L 86.658145,40.229856 L 85.197205,39.46094 L 83.697819,39.345603 L 82.429107,40.114519 L 80.353034,42.57505 L 80.314589,42.613496 L 80.276143,42.57505 L 80.237697,42.690387 L 76.73913,46.534967 L 76.73913,46.573412 L 76.700684,46.611858 L 71.702731,52.032715 L 71.702731,41.229447 L 68.627067,42.767279 L 68.627067,39.691615 L 65.782078,41.11411 L 65.551403,40.65276 L 65.551403,38.153783 L 63.744451,39.076482 L 63.090873,38.615133 L 59.553859,38 z "
       id="path2269" />
    <path
       style="fill:url(#radialGradient4351);fill-opacity:1.0;stroke:none;stroke-width:0.76891589;stroke-miterlimit:4"
       d="M 59.553512,37.999813 L 57.861897,39.076295 L 57.323656,40.614127 L 58.630813,41.613718 L 57.400548,42.228851 L 54.709342,40.691019 L 51.556787,40.844802 L 49.78828,42.767092 L 49.557606,44.843165 L 50.787871,45.535189 L 48.980919,46.457888 L 47.020183,45.150731 L 43.636953,45.381406 L 42.329796,46.996129 L 42.099121,48.841527 L 43.021821,49.418214 L 38.639,51.609625 L 38.639,90.82434 L 41.714664,89.2865 L 41.714664,92.36217 L 44.790327,90.82434 L 44.790327,93.9 L 71.702384,80.443971 L 71.702384,61.720869 L 82.313423,50.763817 L 85.619761,46.727009 L 87.388268,44.497153 L 87.888063,43.074658 L 87.73428,41.69061 L 86.657798,40.229669 L 85.196858,39.460753 L 83.697472,39.345416 L 82.42876,40.114332 L 80.352687,42.574863 L 80.314242,42.613309 L 80.275796,42.574863 L 80.23735,42.6902 L 76.738783,46.53478 L 76.738783,46.573225 L 76.700337,46.611671 L 71.702384,52.032528 L 71.702384,41.22926 L 68.62672,42.767092 L 68.62672,39.691428 L 65.781731,41.113923 L 65.551056,40.652573 L 65.551056,38.153596 L 63.744104,39.076295 L 63.090526,38.614946 L 59.553512,37.999813 z "
       id="path3374" />
  </g>
</svg>
