<?xml version="1.0" encoding="UTF-8" standalone="no"?>
<!-- Created with Inkscape (http://www.inkscape.org/) -->

<svg
   xmlns:dc="http://purl.org/dc/elements/1.1/"
   xmlns:cc="http://creativecommons.org/ns#"
   xmlns:rdf="http://www.w3.org/1999/02/22-rdf-syntax-ns#"
   xmlns:svg="http://www.w3.org/2000/svg"
   xmlns="http://www.w3.org/2000/svg"
   xmlns:xlink="http://www.w3.org/1999/xlink"
   xmlns:sodipodi="http://sodipodi.sourceforge.net/DTD/sodipodi-0.dtd"
   xmlns:inkscape="http://www.inkscape.org/namespaces/inkscape"
   width="128"
   height="128"
   id="svg4543"
   sodipodi:version="0.32"
   inkscape:version="0.47pre0 r21549"
   version="1.0"
   sodipodi:docname="blender.svg"
   inkscape:output_extension="org.inkscape.output.svg.inkscape"
   sodipodi:modified="true">
  <defs
     id="defs4545">
    <linearGradient
       inkscape:collect="always"
       id="linearGradient3262">
      <stop
         style="stop-color:#b3b3b3;stop-opacity:1;"
         offset="0"
         id="stop3264" />
      <stop
         style="stop-color:#b3b3b3;stop-opacity:0;"
         offset="1"
         id="stop3266" />
    </linearGradient>
    <linearGradient
       id="linearGradient3202">
      <stop
         style="stop-color:#5599ff;stop-opacity:1;"
         offset="0"
         id="stop3204" />
      <stop
         style="stop-color:#aaccff;stop-opacity:1;"
         offset="1"
         id="stop3206" />
    </linearGradient>
    <linearGradient
       inkscape:collect="always"
       id="linearGradient6111">
      <stop
         style="stop-color:#b3b3b3;stop-opacity:1;"
         offset="0"
         id="stop6113" />
      <stop
         style="stop-color:#b3b3b3;stop-opacity:0;"
         offset="1"
         id="stop6115" />
    </linearGradient>
    <linearGradient
       inkscape:collect="always"
       id="linearGradient5165">
      <stop
         style="stop-color:#ffffff;stop-opacity:1;"
         offset="0"
         id="stop5167" />
      <stop
         style="stop-color:#ffffff;stop-opacity:0;"
         offset="1"
         id="stop5169" />
    </linearGradient>
    <radialGradient
       inkscape:collect="always"
       xlink:href="#linearGradient5165"
       id="radialGradient2206"
       gradientUnits="userSpaceOnUse"
       gradientTransform="matrix(1.1211668,1.0585101,-0.9643558,1.0214394,43.144146,-61.486749)"
       cx="65.09185"
       cy="54.124912"
       fx="65.091843"
       fy="54.124912"
       r="42.964352" />
    <radialGradient
       inkscape:collect="always"
       xlink:href="#linearGradient5165"
       id="radialGradient3185"
       cx="65.468056"
       cy="56.718754"
       fx="65.468048"
       fy="56.718758"
       r="42.96875"
       gradientUnits="userSpaceOnUse"
       gradientTransform="matrix(1.1210521,1.0584018,-0.9642571,1.0213347,45.225651,-64.521398)" />
    <radialGradient
       inkscape:collect="always"
       xlink:href="#linearGradient6111"
       id="radialGradient6117"
       cx="46.165321"
       cy="41.136826"
       fx="46.165321"
       fy="41.136826"
       r="45.488403"
       gradientUnits="userSpaceOnUse"
       gradientTransform="matrix(1.5516333,0,0,1.5815088,-37.727284,-27.261977)" />
    <filter
       inkscape:collect="always"
       x="-0.1038961"
       width="1.2077922"
       y="-0.1038961"
       height="1.2077922"
       id="filter11008">
      <feGaussianBlur
         inkscape:collect="always"
         stdDeviation="4.7260679"
         id="feGaussianBlur11010" />
    </filter>
    <radialGradient
       inkscape:collect="always"
       xlink:href="#linearGradient3202"
       id="radialGradient3208"
       cx="102.51593"
       cy="101.69495"
       fx="102.51593"
       fy="101.69495"
       r="13.198329"
       gradientTransform="translate(0,6.9346245e-5)"
       gradientUnits="userSpaceOnUse" />
    <radialGradient
       inkscape:collect="always"
       xlink:href="#linearGradient3202"
       id="radialGradient3216"
       cx="95.081268"
       cy="94.544952"
       fx="95.081268"
       fy="94.544952"
       r="20.533518"
       gradientTransform="matrix(1,0,0,0.9906329,0,0.8856073)"
       gradientUnits="userSpaceOnUse" />
    <radialGradient
       inkscape:collect="always"
       xlink:href="#linearGradient3262"
       id="radialGradient3268"
       cx="83.136032"
       cy="95.300171"
       fx="83.136032"
       fy="95.300171"
       r="32.319444"
       gradientTransform="matrix(0.3261445,-1.2639424,1.2935355,0.3337807,-67.252476,163.19981)"
       gradientUnits="userSpaceOnUse" />
  </defs>
  <sodipodi:namedview
     id="base"
     pagecolor="#ffffff"
     bordercolor="#666666"
     borderopacity="1.0"
     inkscape:pageopacity="0.0"
     inkscape:pageshadow="2"
     inkscape:zoom="3.959798"
     inkscape:cx="72.504986"
     inkscape:cy="65.39765"
     inkscape:document-units="px"
     inkscape:current-layer="layer1"
     width="128px"
     height="128px"
     inkscape:window-width="1278"
     inkscape:window-height="956"
     inkscape:window-x="0"
     inkscape:window-y="23"
     showgrid="true"
     showguides="true"
     inkscape:guide-bbox="true" />
  <metadata
     id="metadata4548">
    <rdf:RDF>
      <cc:Work
         rdf:about="">
        <dc:format>image/svg+xml</dc:format>
        <dc:type
           rdf:resource="http://purl.org/dc/dcmitype/StillImage" />
      </cc:Work>
    </rdf:RDF>
  </metadata>
  <g
     inkscape:label="Livello 1"
     inkscape:groupmode="layer"
     id="layer1">
    <rect
       style="opacity:1;fill:#666666;fill-opacity:1;stroke:none;stroke-width:0.89999998;stroke-linecap:round;stroke-linejoin:miter;stroke-miterlimit:4;stroke-dasharray:none;stroke-dashoffset:0;stroke-opacity:1;filter:url(#filter11008)"
       id="rect9046"
       width="90.976807"
       height="90.976807"
       x="20.152"
       y="11.811193"
       rx="8.7811127"
       ry="8.7811127"
       transform="matrix(1.133182,0,0,1.133182,-10.259971,-1.5730389)" />
    <rect
       style="opacity:1;fill:#000000;fill-opacity:1;stroke:none;stroke-width:0.89999998;stroke-linecap:round;stroke-linejoin:miter;stroke-miterlimit:4;stroke-dasharray:none;stroke-dashoffset:0;stroke-opacity:1"
       id="rect2510"
       width="103.09328"
       height="103.09328"
       x="12.575425"
       y="11.811361"
       rx="9.9505997"
       ry="9.9505997" />
    <rect
       style="opacity:0.17316015;fill:url(#radialGradient6117);fill-opacity:1;stroke:none;stroke-width:0.89999998;stroke-linecap:round;stroke-linejoin:miter;stroke-miterlimit:4;stroke-dasharray:none;stroke-dashoffset:0;stroke-opacity:1"
       id="rect5140"
       width="103.09328"
       height="103.09328"
       x="12.575913"
       y="11.811193"
       rx="9.9505997"
       ry="9.9505997" />
    <path
       style="fill:url(#radialGradient3208);fill-opacity:1.0;fill-rule:evenodd;stroke:none;stroke-width:1px;stroke-linecap:butt;stroke-linejoin:miter;stroke-opacity:1"
       d="M 98.011316,114.87419 L 115.71426,97.22425 L 115.71426,88.49663 L 89.317602,114.89327 L 98.011316,114.87419 z "
       id="path2522"
       sodipodi:nodetypes="ccccc" />
    <path
       style="fill:url(#radialGradient3216);fill-opacity:1.0;fill-rule:evenodd;stroke:none;stroke-width:1px;stroke-linecap:butt;stroke-linejoin:miter;stroke-opacity:1"
       d="M 83.241469,114.86705 L 115.61479,82.931391 L 115.61479,74.20377 L 74.547753,114.88613 L 83.241469,114.86705 z "
       id="path2542"
       sodipodi:nodetypes="ccccc" />
    <path
       style="fill:#4d4d4d;fill-opacity:1;fill-rule:evenodd;stroke:none;stroke-width:0.99999982;stroke-linecap:butt;stroke-linejoin:miter;stroke-miterlimit:4;stroke-dasharray:none;stroke-opacity:1"
       d="M 63.569279,35.391438 C 62.793939,35.402283 62.004259,35.592311 61.337569,36.06516 C 59.548459,37.329126 59.368709,39.967268 61.000709,41.328628 C 63.224019,43.104488 65.337129,44.832818 67.527409,46.592088 C 64.244719,46.595808 42.136449,46.634198 42.136449,46.634198 C 40.529909,46.634198 39.264249,47.275928 38.473079,48.234288 C 37.681909,49.192658 37.364509,50.391458 37.336169,51.560808 C 37.277259,53.991818 39.296889,56.484998 42.178559,56.487408 C 42.178559,56.487408 48.431219,56.525908 52.873919,56.529518 C 46.096089,61.495888 39.313279,66.426208 32.535889,71.393538 L 32.535889,71.435648 C 30.122509,73.308298 29.721189,76.485048 31.314759,78.551858 C 32.125679,79.602908 33.336749,80.150458 34.599169,80.151948 C 35.861579,80.153438 37.158319,79.648848 38.346749,78.678178 C 38.346749,78.678178 47.602189,71.018038 49.589519,69.372368 C 49.566999,69.694078 49.543019,69.796568 49.547409,70.088198 C 49.563629,71.055398 49.846499,72.653918 50.263239,74.004218 C 51.127539,76.792218 52.566859,79.398168 54.600339,81.667828 C 56.685519,83.995868 59.264269,85.858028 62.221829,87.183938 C 65.333659,88.577068 68.711369,89.294918 72.201359,89.289328 C 75.691239,89.281848 79.070809,88.544948 82.180889,87.141828 C 85.136109,85.803378 87.676509,83.917728 89.760289,81.583608 C 91.788649,79.305568 93.275459,76.751028 94.139489,73.962108 C 94.576969,72.550608 94.826029,71.105598 94.939529,69.667128 C 95.048639,68.252718 95.012169,66.828178 94.813219,65.414248 C 94.426829,62.654098 93.483239,60.067318 92.034099,57.708528 C 90.834469,55.754528 89.301139,54.060398 87.528579,52.571388 L 87.570679,52.529278 L 86.981179,52.066098 C 86.981179,52.066098 67.106329,36.612562 67.106329,36.612562 C 67.105119,36.611546 67.075519,36.580027 67.064219,36.570454 C 67.050169,36.559568 67.036309,36.53911 67.022109,36.528346 C 66.271819,35.959547 65.324119,35.566359 64.327219,35.433544 C 64.073279,35.399711 63.827729,35.387821 63.569279,35.391438 z M 72.411899,53.960948 C 79.945039,53.960948 86.054809,59.478918 86.054809,66.298508 C 86.054809,73.118088 79.945039,78.678178 72.411899,78.678178 C 64.878759,78.678178 58.768999,73.118088 58.768999,66.298508 C 58.768999,59.478918 64.878759,53.960948 72.411899,53.960948 z M 71.653959,58.298038 C 69.883149,58.456688 68.258349,59.171568 67.022109,60.234998 C 65.586429,61.471318 64.644729,63.225338 64.537759,65.203708 C 64.426929,67.238468 65.231819,69.109058 66.643139,70.509278 C 68.080339,71.935708 70.120399,72.867308 72.411899,72.867308 C 74.702089,72.867308 76.743399,71.935698 78.180659,70.509278 C 79.590549,69.109068 80.396919,67.239768 80.286049,65.203708 C 80.177829,63.225328 79.238959,61.471318 77.801689,60.234998 C 76.389169,59.019648 74.483009,58.298038 72.411899,58.298038 C 72.152849,58.298038 71.906939,58.275368 71.653959,58.298038 z "
       id="path2288" />
    <path
       style="opacity:0.51082255;fill:url(#radialGradient2206);fill-opacity:1;stroke:url(#radialGradient3185);stroke-width:1.01986384;stroke-linecap:round;stroke-linejoin:miter;stroke-miterlimit:4;stroke-dasharray:none;stroke-dashoffset:0;stroke-opacity:1"
       d="M 27.0288,14.008214 C 20.508303,14.008214 15.236625,19.279893 15.236625,25.80039 L 15.236625,99.598871 C 15.236625,106.11937 20.508302,111.39105 27.0288,111.39105 L 100.82729,111.39105 C 107.34778,111.39105 112.61946,106.11937 112.61946,99.598871 L 112.61946,25.80039 C 112.61946,19.279893 107.34777,14.008214 100.82729,14.008214 L 27.0288,14.008214 z M 27.0288,15.03516 L 100.82729,15.03516 C 106.80041,15.03516 111.59251,19.827256 111.59251,25.80039 L 111.59251,99.598871 C 111.59251,105.57201 106.80042,110.3641 100.82729,110.3641 L 27.0288,110.3641 C 21.055666,110.3641 16.263571,105.572 16.263571,99.598871 L 16.263571,25.80039 C 16.263571,19.827256 21.055666,15.03516 27.0288,15.03516 z "
       id="rect2512" />
    <text
       xml:space="preserve"
       style="font-size:12.87574577px;font-style:normal;font-variant:normal;font-weight:normal;font-stretch:normal;text-align:start;line-height:125%;writing-mode:lr-tb;text-anchor:start;fill:#4d4d4d;fill-opacity:1;stroke:none;stroke-width:1px;stroke-linecap:butt;stroke-linejoin:miter;stroke-opacity:1;font-family:HandelGotDLig"
       x="54.818527"
       y="26.630772"
       id="text9042"
       sodipodi:linespacing="125%"><tspan
         sodipodi:role="line"
         id="tspan9044"
         x="54.818527"
         y="26.630772">BLENDER</tspan></text>
    <text
       xml:space="preserve"
       style="font-size:12.87574577px;font-style:normal;font-variant:normal;font-weight:normal;font-stretch:normal;text-align:start;line-height:125%;writing-mode:lr-tb;text-anchor:start;fill:#ffffff;fill-opacity:1;stroke:none;stroke-width:1px;stroke-linecap:butt;stroke-linejoin:miter;stroke-opacity:1;font-family:HandelGotDLig"
       x="55.001781"
       y="26.909241"
       id="text5135"
       sodipodi:linespacing="125%"><tspan
         sodipodi:role="line"
         id="tspan5137"
         x="55.001781"
         y="26.909241">BLENDER</tspan></text>
    <path
       style="fill:#ffffff;fill-opacity:1;fill-rule:evenodd;stroke:none;stroke-width:0.99999982;stroke-linecap:butt;stroke-linejoin:miter;stroke-miterlimit:4;stroke-dasharray:none;stroke-opacity:1"
       d="M 63.569281,36.032166 C 62.793941,36.043011 62.004256,36.233039 61.337571,36.705888 C 59.548462,37.969854 59.368712,40.607997 61.000709,41.969354 C 63.224022,43.745212 65.337132,45.473542 67.527407,47.23282 C 64.244721,47.236538 42.136449,47.274928 42.136449,47.274928 C 40.52991,47.274928 39.264248,47.916652 38.473077,48.87502 C 37.681906,49.83339 37.364504,51.032186 37.336169,52.201532 C 37.27726,54.632542 39.296888,57.12573 42.178557,57.128134 C 42.178557,57.128134 48.431215,57.166633 52.873919,57.170242 C 46.096086,62.136619 39.313276,67.06694 32.535887,72.03427 L 32.535887,72.076376 C 30.122505,73.949031 29.721191,77.125778 31.314763,79.192582 C 32.125677,80.243639 33.336753,80.791183 34.599167,80.792676 C 35.861578,80.794167 37.15832,80.289581 38.346753,79.318906 C 38.346753,79.318906 47.602192,71.658767 49.589515,70.013098 C 49.566995,70.334804 49.543014,70.437295 49.547409,70.72893 C 49.563624,71.696122 49.846502,73.294644 50.263239,74.644948 C 51.12754,77.432947 52.566861,80.0389 54.600335,82.308554 C 56.685517,84.636593 59.264269,86.498759 62.221833,87.824666 C 65.333657,89.217797 68.711364,89.935647 72.201363,89.930052 C 75.691235,89.922578 79.070812,89.185677 82.180893,87.782558 C 85.136112,86.444106 87.676513,84.558453 89.760285,82.224338 C 91.788649,79.946296 93.275457,77.391755 94.139484,74.60284 C 94.576968,73.19134 94.826029,71.74633 94.939532,70.307852 C 95.048639,68.893449 95.012167,67.468909 94.813217,66.054972 C 94.426831,63.294822 93.483235,60.708044 92.034101,58.349258 C 90.834469,56.39526 89.301141,54.701122 87.528575,53.212116 L 87.570683,53.170008 L 86.981175,52.706824 C 86.981175,52.706824 67.106329,37.25329 67.106329,37.25329 C 67.10512,37.252274 67.07552,37.220755 67.064221,37.211182 C 67.050168,37.200296 67.036311,37.179838 67.022113,37.169074 C 66.271814,36.600275 65.324114,36.207087 64.327219,36.074272 C 64.073279,36.040439 63.827728,36.028549 63.569281,36.032166 z M 72.411903,54.601672 C 79.945043,54.601673 86.054805,60.119649 86.054805,66.939234 C 86.054805,73.758819 79.945043,79.318906 72.411903,79.318906 C 64.878761,79.318907 58.768999,73.758819 58.768999,66.939234 C 58.768999,60.119649 64.878761,54.601672 72.411903,54.601672 z M 71.653963,58.938766 C 69.883146,59.09742 68.258353,59.812295 67.022113,60.875722 C 65.586429,62.11205 64.644727,63.866064 64.537757,65.844434 C 64.426928,67.879192 65.231815,69.74979 66.643143,71.150006 C 68.080341,72.576434 70.120395,73.50804 72.411903,73.50804 C 74.702091,73.50804 76.743394,72.576431 78.180661,71.150006 C 79.590544,69.749793 80.396916,67.8805 80.286047,65.844434 C 80.177827,63.86606 79.238954,62.11205 77.801691,60.875722 C 76.389169,59.660376 74.483006,58.938766 72.411903,58.938766 C 72.152849,58.938766 71.906936,58.916101 71.653963,58.938766 z "
       id="path2482" />
    <path
       style="fill:url(#radialGradient3268);fill-opacity:1.0;fill-rule:evenodd;stroke:none;stroke-width:0.99999982;stroke-linecap:butt;stroke-linejoin:miter;stroke-miterlimit:4;stroke-dasharray:none;stroke-opacity:1"
       d="M 63.569169,36.032077 C 62.793829,36.042927 62.004144,36.232957 61.337459,36.705807 C 59.54835,37.969767 59.3686,40.607917 61.000597,41.969267 C 63.22391,43.745127 65.33702,45.473457 67.527295,47.232737 C 64.244609,47.236457 42.136337,47.274847 42.136337,47.274847 C 40.529798,47.274847 39.264136,47.916567 38.472965,48.874937 C 37.681794,49.833307 37.364392,51.032097 37.336057,52.201447 C 37.277148,54.632457 39.296776,57.125647 42.178445,57.128047 C 42.178445,57.128047 48.431103,57.166547 52.873807,57.170157 C 46.095974,62.136537 39.313164,67.066857 32.535775,72.034187 L 32.535775,72.076287 C 30.122393,73.948947 29.721079,77.125697 31.314651,79.192497 C 32.125565,80.243557 33.336641,80.791097 34.599055,80.792587 C 35.861466,80.794087 37.158208,80.289497 38.346641,79.318817 C 38.346641,79.318817 47.60208,71.658687 49.589403,70.013017 C 49.566883,70.334717 49.542902,70.437207 49.547297,70.728847 C 49.563512,71.696037 49.84639,73.294557 50.263127,74.644867 C 51.127428,77.432867 52.566749,80.038817 54.600223,82.308467 C 56.685405,84.636507 59.264157,86.498677 62.221721,87.824577 C 65.333545,89.217717 68.711252,89.935567 72.201251,89.929967 C 75.691123,89.922497 79.0707,89.185597 82.180781,87.782477 C 85.136,86.444017 87.676401,84.558367 89.760173,82.224257 C 91.788537,79.946207 93.275345,77.391667 94.139372,74.602757 C 94.576856,73.191257 94.825917,71.746247 94.93942,70.307767 C 95.048527,68.893367 95.012055,67.468827 94.813105,66.054887 C 94.426719,63.294737 93.483123,60.707957 92.033989,58.349177 C 90.834357,56.395177 89.301029,54.701037 87.528463,53.212027 L 87.570571,53.169927 L 86.981063,52.706737 C 86.981063,52.706737 67.106217,37.253207 67.106217,37.253207 C 67.105008,37.252187 67.075408,37.220667 67.064109,37.211097 C 67.050056,37.200207 67.036199,37.179757 67.022001,37.168987 C 66.271702,36.600187 65.324002,36.207007 64.327107,36.074187 C 64.073167,36.040357 63.827616,36.028467 63.569169,36.032077 z M 72.411791,54.601587 C 79.944931,54.601587 86.054693,60.119567 86.054693,66.939147 C 86.054693,73.758737 79.944931,79.318817 72.411791,79.318817 C 64.878649,79.318827 58.768887,73.758737 58.768887,66.939147 C 58.768887,60.119567 64.878649,54.601587 72.411791,54.601587 z M 71.653851,58.938677 C 69.883034,59.097337 68.258241,59.812207 67.022001,60.875637 C 65.586317,62.111967 64.644615,63.865977 64.537645,65.844347 C 64.426816,67.879107 65.231703,69.749707 66.643031,71.149917 C 68.080229,72.576347 70.120283,73.507957 72.411791,73.507957 C 74.701979,73.507957 76.743282,72.576347 78.180549,71.149917 C 79.590432,69.749707 80.396804,67.880417 80.285935,65.844347 C 80.177715,63.865977 79.238842,62.111967 77.801579,60.875637 C 76.389057,59.660287 74.482894,58.938677 72.411791,58.938677 C 72.152737,58.938677 71.906824,58.916017 71.653851,58.938677 z "
       id="path2290" />
  </g>
</svg>
