<?xml version="1.0" encoding="UTF-8" standalone="no"?>
<!-- Created with Inkscape (http://www.inkscape.org/) -->

<svg
   xmlns:dc="http://purl.org/dc/elements/1.1/"
   xmlns:cc="http://creativecommons.org/ns#"
   xmlns:rdf="http://www.w3.org/1999/02/22-rdf-syntax-ns#"
   xmlns:svg="http://www.w3.org/2000/svg"
   xmlns="http://www.w3.org/2000/svg"
   xmlns:xlink="http://www.w3.org/1999/xlink"
   xmlns:sodipodi="http://sodipodi.sourceforge.net/DTD/sodipodi-0.dtd"
   xmlns:inkscape="http://www.inkscape.org/namespaces/inkscape"
   width="128"
   height="128"
   id="svg4543"
   sodipodi:version="0.32"
   inkscape:version="0.47pre0 r21549"
   version="1.0"
   sodipodi:docname="game.svg"
   inkscape:output_extension="org.inkscape.output.svg.inkscape"
   sodipodi:modified="true">
  <defs
     id="defs4545">
    <linearGradient
       id="linearGradient3233">
      <stop
         style="stop-color:#ff0000;stop-opacity:1;"
         offset="0"
         id="stop3235" />
      <stop
         style="stop-color:#ff5555;stop-opacity:1;"
         offset="1"
         id="stop3237" />
    </linearGradient>
    <linearGradient
       inkscape:collect="always"
       id="linearGradient4245">
      <stop
         style="stop-color:#808080;stop-opacity:1;"
         offset="0"
         id="stop4247" />
      <stop
         style="stop-color:#808080;stop-opacity:0;"
         offset="1"
         id="stop4249" />
    </linearGradient>
    <linearGradient
       id="linearGradient4237">
      <stop
         style="stop-color:#808080;stop-opacity:1;"
         offset="0"
         id="stop4239" />
      <stop
         style="stop-color:#808080;stop-opacity:0;"
         offset="1"
         id="stop4241" />
    </linearGradient>
    <linearGradient
       inkscape:collect="always"
       id="linearGradient4229">
      <stop
         style="stop-color:#808080;stop-opacity:1;"
         offset="0"
         id="stop4231" />
      <stop
         style="stop-color:#808080;stop-opacity:0;"
         offset="1"
         id="stop4233" />
    </linearGradient>
    <linearGradient
       inkscape:collect="always"
       id="linearGradient6111">
      <stop
         style="stop-color:#b3b3b3;stop-opacity:1;"
         offset="0"
         id="stop6113" />
      <stop
         style="stop-color:#b3b3b3;stop-opacity:0;"
         offset="1"
         id="stop6115" />
    </linearGradient>
    <linearGradient
       inkscape:collect="always"
       id="linearGradient5165">
      <stop
         style="stop-color:#ffffff;stop-opacity:1;"
         offset="0"
         id="stop5167" />
      <stop
         style="stop-color:#ffffff;stop-opacity:0;"
         offset="1"
         id="stop5169" />
    </linearGradient>
    <radialGradient
       inkscape:collect="always"
       xlink:href="#linearGradient5165"
       id="radialGradient2206"
       gradientUnits="userSpaceOnUse"
       gradientTransform="matrix(1.1211668,1.0585101,-0.9643558,1.0214394,43.144146,-61.486749)"
       cx="65.09185"
       cy="54.124912"
       fx="65.091843"
       fy="54.124912"
       r="42.964352" />
    <radialGradient
       inkscape:collect="always"
       xlink:href="#linearGradient5165"
       id="radialGradient3185"
       cx="65.468056"
       cy="56.718754"
       fx="65.468048"
       fy="56.718758"
       r="42.96875"
       gradientUnits="userSpaceOnUse"
       gradientTransform="matrix(1.1210521,1.0584018,-0.9642571,1.0213347,45.225651,-64.521398)" />
    <radialGradient
       inkscape:collect="always"
       xlink:href="#linearGradient6111"
       id="radialGradient6117"
       cx="46.165321"
       cy="41.136826"
       fx="46.165321"
       fy="41.136826"
       r="45.488403"
       gradientUnits="userSpaceOnUse"
       gradientTransform="matrix(1.5516333,0,0,1.5815088,-37.727284,-27.261977)" />
    <filter
       inkscape:collect="always"
       x="-0.1038961"
       width="1.2077922"
       y="-0.1038961"
       height="1.2077922"
       id="filter11008">
      <feGaussianBlur
         inkscape:collect="always"
         stdDeviation="4.7260679"
         id="feGaussianBlur11010" />
    </filter>
    <radialGradient
       inkscape:collect="always"
       xlink:href="#linearGradient4229"
       id="radialGradient4235"
       cx="56.383389"
       cy="84.07428"
       fx="56.383389"
       fy="84.07428"
       r="21.67004"
       gradientTransform="matrix(0.6539001,-1.6702607,2.3422455,0.9169792,-161.97338,113.40471)"
       gradientUnits="userSpaceOnUse" />
    <radialGradient
       inkscape:collect="always"
       xlink:href="#linearGradient4237"
       id="radialGradient4243"
       cx="82.832512"
       cy="64.222969"
       fx="82.832512"
       fy="64.222969"
       r="3.7880721"
       gradientUnits="userSpaceOnUse"
       gradientTransform="matrix(1.240963,-1.4446705,1.5999243,1.3743254,-122.71146,95.625395)" />
    <radialGradient
       inkscape:collect="always"
       xlink:href="#linearGradient4245"
       id="radialGradient4251"
       cx="82.832512"
       cy="63.687256"
       fx="82.832512"
       fy="63.687256"
       r="3.7880721"
       gradientUnits="userSpaceOnUse"
       gradientTransform="matrix(1.0000004,-1.0235138,1.3657233,1.3343482,-86.9792,63.486501)" />
    <radialGradient
       inkscape:collect="always"
       xlink:href="#linearGradient3233"
       id="radialGradient3235"
       cx="102.51593"
       cy="101.69495"
       fx="102.51593"
       fy="101.69495"
       r="13.198329"
       gradientTransform="translate(0,6.9346245e-5)"
       gradientUnits="userSpaceOnUse" />
    <radialGradient
       inkscape:collect="always"
       xlink:href="#linearGradient3233"
       id="radialGradient3239"
       cx="95.081268"
       cy="94.544952"
       fx="95.081268"
       fy="94.544952"
       r="20.533518"
       gradientTransform="matrix(1,0,0,0.9906329,0,0.8856073)"
       gradientUnits="userSpaceOnUse" />
  </defs>
  <sodipodi:namedview
     id="base"
     pagecolor="#ffffff"
     bordercolor="#666666"
     borderopacity="1.0"
     inkscape:pageopacity="0.0"
     inkscape:pageshadow="2"
     inkscape:zoom="1.979899"
     inkscape:cx="251.42304"
     inkscape:cy="30.191692"
     inkscape:document-units="px"
     inkscape:current-layer="layer1"
     width="128px"
     height="128px"
     inkscape:window-width="1278"
     inkscape:window-height="956"
     inkscape:window-x="0"
     inkscape:window-y="23"
     showgrid="true"
     showguides="true"
     inkscape:guide-bbox="true" />
  <metadata
     id="metadata4548">
    <rdf:RDF>
      <cc:Work
         rdf:about="">
        <dc:format>image/svg+xml</dc:format>
        <dc:type
           rdf:resource="http://purl.org/dc/dcmitype/StillImage" />
      </cc:Work>
    </rdf:RDF>
  </metadata>
  <g
     inkscape:label="Livello 1"
     inkscape:groupmode="layer"
     id="layer1">
    <rect
       style="opacity:1;fill:#666666;fill-opacity:1;stroke:none;stroke-width:0.89999998;stroke-linecap:round;stroke-linejoin:miter;stroke-miterlimit:4;stroke-dasharray:none;stroke-dashoffset:0;stroke-opacity:1;filter:url(#filter11008)"
       id="rect9046"
       width="90.976807"
       height="90.976807"
       x="20.152"
       y="11.811193"
       rx="8.7811127"
       ry="8.7811127"
       transform="matrix(1.133182,0,0,1.133182,-10.259971,-1.5730389)" />
    <rect
       style="opacity:1;fill:#000000;fill-opacity:1;stroke:none;stroke-width:0.89999998;stroke-linecap:round;stroke-linejoin:miter;stroke-miterlimit:4;stroke-dasharray:none;stroke-dashoffset:0;stroke-opacity:1"
       id="rect2510"
       width="103.09328"
       height="103.09328"
       x="12.575425"
       y="11.811361"
       rx="9.9505997"
       ry="9.9505997" />
    <rect
       style="opacity:0.17316015;fill:url(#radialGradient6117);fill-opacity:1;stroke:none;stroke-width:0.89999998;stroke-linecap:round;stroke-linejoin:miter;stroke-miterlimit:4;stroke-dasharray:none;stroke-dashoffset:0;stroke-opacity:1"
       id="rect5140"
       width="103.09328"
       height="103.09328"
       x="12.575913"
       y="11.811193"
       rx="9.9505997"
       ry="9.9505997" />
    <path
       style="fill:url(#radialGradient3235);fill-opacity:1.0;fill-rule:evenodd;stroke:none;stroke-width:1px;stroke-linecap:butt;stroke-linejoin:miter;stroke-opacity:1"
       d="M 98.011316,114.87419 L 115.71426,97.22425 L 115.71426,88.49663 L 89.317602,114.89327 L 98.011316,114.87419 z "
       id="path2522"
       sodipodi:nodetypes="ccccc" />
    <path
       style="fill:url(#radialGradient3239);fill-opacity:1.0;fill-rule:evenodd;stroke:none;stroke-width:1px;stroke-linecap:butt;stroke-linejoin:miter;stroke-opacity:1"
       d="M 83.241469,114.86705 L 115.61479,82.931391 L 115.61479,74.20377 L 74.547753,114.88613 L 83.241469,114.86705 z "
       id="path2542"
       sodipodi:nodetypes="ccccc" />
    <path
       style="opacity:0.51082255;fill:url(#radialGradient2206);fill-opacity:1;stroke:url(#radialGradient3185);stroke-width:1.01986384;stroke-linecap:round;stroke-linejoin:miter;stroke-miterlimit:4;stroke-dasharray:none;stroke-dashoffset:0;stroke-opacity:1"
       d="M 27.0288,14.008214 C 20.508303,14.008214 15.236625,19.279893 15.236625,25.80039 L 15.236625,99.598871 C 15.236625,106.11937 20.508302,111.39105 27.0288,111.39105 L 100.82729,111.39105 C 107.34778,111.39105 112.61946,106.11937 112.61946,99.598871 L 112.61946,25.80039 C 112.61946,19.279893 107.34777,14.008214 100.82729,14.008214 L 27.0288,14.008214 z M 27.0288,15.03516 L 100.82729,15.03516 C 106.80041,15.03516 111.59251,19.827256 111.59251,25.80039 L 111.59251,99.598871 C 111.59251,105.57201 106.80042,110.3641 100.82729,110.3641 L 27.0288,110.3641 C 21.055666,110.3641 16.263571,105.572 16.263571,99.598871 L 16.263571,25.80039 C 16.263571,19.827256 21.055666,15.03516 27.0288,15.03516 z "
       id="rect2512" />
    <text
       xml:space="preserve"
       style="font-size:12.87574577px;font-style:normal;font-variant:normal;font-weight:normal;font-stretch:normal;text-align:start;line-height:125%;writing-mode:lr-tb;text-anchor:start;fill:#4d4d4d;fill-opacity:1;stroke:none;stroke-width:1px;stroke-linecap:butt;stroke-linejoin:miter;stroke-opacity:1;font-family:HandelGotDLig"
       x="74.5662"
       y="26.630772"
       id="text9042"
       sodipodi:linespacing="125%"><tspan
         sodipodi:role="line"
         id="tspan9044"
         x="74.5662"
         y="26.630772">GAME</tspan></text>
    <text
       xml:space="preserve"
       style="font-size:12.87574577px;font-style:normal;font-variant:normal;font-weight:normal;font-stretch:normal;text-align:start;line-height:125%;writing-mode:lr-tb;text-anchor:start;fill:#ffffff;fill-opacity:1;stroke:none;stroke-width:1px;stroke-linecap:butt;stroke-linejoin:miter;stroke-opacity:1;font-family:HandelGotDLig"
       x="74.749451"
       y="26.909241"
       id="text5135"
       sodipodi:linespacing="125%"><tspan
         sodipodi:role="line"
         id="tspan5137"
         x="74.749451"
         y="26.909241">GAME</tspan></text>
    <g
       id="g4218"
       transform="translate(10.346629,-0.5737863)">
      <path
         id="path4212"
         d="M 48.696533,41.254755 C 42.25536,41.202566 35.813446,43.938745 31.352783,49.254755 C 23.422717,58.70544 24.683349,72.793441 34.134033,80.723501 C 43.584718,88.653571 57.672715,87.424191 65.602783,77.973501 L 48.477783,63.598505 L 69.477783,55.973505 C 68.071283,52.109178 66.003011,49.116862 62.852783,46.473505 C 58.718108,43.004101 53.706334,41.295347 48.696533,41.254755 z M 52.665283,47.348505 C 54.547195,47.348505 56.071533,48.872841 56.071533,50.754755 C 56.071532,52.63667 54.547197,54.161005 52.665283,54.161005 C 50.783367,54.161003 49.259033,52.636669 49.259033,50.754755 C 49.259033,48.872842 50.783369,47.348505 52.665283,47.348505 z "
         style="opacity:1;fill:#4d4d4d;fill-opacity:1;fill-rule:nonzero;stroke:none;stroke-width:1;stroke-linecap:round;stroke-linejoin:miter;stroke-miterlimit:4;stroke-dasharray:none;stroke-dashoffset:0;stroke-opacity:1" />
      <path
         transform="translate(-10.101527,9.0116375)"
         d="M 86.620584 57.794399 A 3.7880721 3.7880721 0 1 1  79.04444,57.794399 A 3.7880721 3.7880721 0 1 1  86.620584 57.794399 z"
         sodipodi:ry="3.7880721"
         sodipodi:rx="3.7880721"
         sodipodi:cy="57.794399"
         sodipodi:cx="82.832512"
         id="path4214"
         style="opacity:1;fill:#4d4d4d;fill-opacity:1;fill-rule:nonzero;stroke:none;stroke-width:1;stroke-linecap:round;stroke-linejoin:miter;stroke-miterlimit:4;stroke-dasharray:none;stroke-dashoffset:0;stroke-opacity:1"
         sodipodi:type="arc" />
      <path
         transform="translate(3.9143319,9.0116365)"
         d="M 86.620584 57.794399 A 3.7880721 3.7880721 0 1 1  79.04444,57.794399 A 3.7880721 3.7880721 0 1 1  86.620584 57.794399 z"
         sodipodi:ry="3.7880721"
         sodipodi:rx="3.7880721"
         sodipodi:cy="57.794399"
         sodipodi:cx="82.832512"
         id="path4216"
         style="opacity:1;fill:#4d4d4d;fill-opacity:1;fill-rule:nonzero;stroke:none;stroke-width:1;stroke-linecap:round;stroke-linejoin:miter;stroke-miterlimit:4;stroke-dasharray:none;stroke-dashoffset:0;stroke-opacity:1"
         sodipodi:type="arc" />
    </g>
    <path
       style="opacity:1;fill:#ffffff;fill-opacity:1;fill-rule:nonzero;stroke:none;stroke-width:1;stroke-linecap:round;stroke-linejoin:miter;stroke-miterlimit:4;stroke-dasharray:none;stroke-dashoffset:0;stroke-opacity:1"
       d="M 59.295706,41.215019 C 52.854533,41.16283 46.412619,43.899009 41.951956,49.215019 C 34.02189,58.665704 35.282522,72.753705 44.733206,80.683769 C 54.183891,88.613835 68.271888,87.384457 76.201956,77.933769 L 59.076956,63.558769 L 80.076956,55.933769 C 78.670456,52.069442 76.602184,49.077126 73.451956,46.433769 C 69.317281,42.964365 64.305507,41.255611 59.295706,41.215019 z M 63.264456,47.308769 C 65.146368,47.308769 66.670706,48.833105 66.670706,50.715019 C 66.670705,52.596934 65.14637,54.121269 63.264456,54.121269 C 61.38254,54.121267 59.858206,52.596933 59.858206,50.715019 C 59.858206,48.833106 61.382542,47.308769 63.264456,47.308769 z "
       id="path4201" />
    <path
       sodipodi:type="arc"
       style="opacity:1;fill:#ffffff;fill-opacity:1;fill-rule:nonzero;stroke:none;stroke-width:1;stroke-linecap:round;stroke-linejoin:miter;stroke-miterlimit:4;stroke-dasharray:none;stroke-dashoffset:0;stroke-opacity:1"
       id="path4206"
       sodipodi:cx="82.832512"
       sodipodi:cy="57.794399"
       sodipodi:rx="3.7880721"
       sodipodi:ry="3.7880721"
       d="M 86.620584 57.794399 A 3.7880721 3.7880721 0 1 1  79.04444,57.794399 A 3.7880721 3.7880721 0 1 1  86.620584 57.794399 z"
       transform="translate(0.4976423,8.9718999)" />
    <path
       sodipodi:type="arc"
       style="opacity:1;fill:#ffffff;fill-opacity:1;fill-rule:nonzero;stroke:none;stroke-width:1;stroke-linecap:round;stroke-linejoin:miter;stroke-miterlimit:4;stroke-dasharray:none;stroke-dashoffset:0;stroke-opacity:1"
       id="path4210"
       sodipodi:cx="82.832512"
       sodipodi:cy="57.794399"
       sodipodi:rx="3.7880721"
       sodipodi:ry="3.7880721"
       d="M 86.620584 57.794399 A 3.7880721 3.7880721 0 1 1  79.04444,57.794399 A 3.7880721 3.7880721 0 1 1  86.620584 57.794399 z"
       transform="translate(14.513505,8.9718992)" />
    <path
       style="opacity:1;fill:url(#radialGradient4235);fill-opacity:1;fill-rule:nonzero;stroke:none;stroke-width:1;stroke-linecap:round;stroke-linejoin:miter;stroke-miterlimit:4;stroke-dasharray:none;stroke-dashoffset:0;stroke-opacity:1"
       d="M 59.295544,41.215513 C 52.854371,41.163324 46.412457,43.899504 41.951794,49.215514 C 34.021728,58.666199 35.28236,72.754199 44.733044,80.684261 C 54.183729,88.614331 68.271726,87.384951 76.201794,77.934261 L 59.076794,63.559263 L 80.076794,55.934264 C 78.670294,52.069937 76.602022,49.077621 73.451794,46.434264 C 69.317119,42.96486 64.305345,41.256105 59.295544,41.215513 z M 63.264294,47.309264 C 65.146206,47.309264 66.670544,48.8336 66.670544,50.715514 C 66.670543,52.597429 65.146208,54.121764 63.264294,54.121764 C 61.382378,54.121762 59.858044,52.597428 59.858044,50.715514 C 59.858044,48.833601 61.38238,47.309264 63.264294,47.309264 z "
       id="path4223" />
    <path
       sodipodi:type="arc"
       style="opacity:1;fill:url(#radialGradient4243);fill-opacity:1;fill-rule:nonzero;stroke:none;stroke-width:1;stroke-linecap:round;stroke-linejoin:miter;stroke-miterlimit:4;stroke-dasharray:none;stroke-dashoffset:0;stroke-opacity:1"
       id="path4225"
       sodipodi:cx="82.832512"
       sodipodi:cy="57.794399"
       sodipodi:rx="3.7880721"
       sodipodi:ry="3.7880721"
       d="M 86.620584 57.794399 A 3.7880721 3.7880721 0 1 1  79.04444,57.794399 A 3.7880721 3.7880721 0 1 1  86.620584 57.794399 z"
       transform="translate(0.497476,8.972396)" />
    <path
       sodipodi:type="arc"
       style="opacity:1;fill:url(#radialGradient4251);fill-opacity:1;fill-rule:nonzero;stroke:none;stroke-width:1;stroke-linecap:round;stroke-linejoin:miter;stroke-miterlimit:4;stroke-dasharray:none;stroke-dashoffset:0;stroke-opacity:1"
       id="path4227"
       sodipodi:cx="82.832512"
       sodipodi:cy="57.794399"
       sodipodi:rx="3.7880721"
       sodipodi:ry="3.7880721"
       d="M 86.620584 57.794399 A 3.7880721 3.7880721 0 1 1  79.04444,57.794399 A 3.7880721 3.7880721 0 1 1  86.620584 57.794399 z"
       transform="translate(14.513343,8.972395)" />
  </g>
</svg>
