<?xml version="1.0" encoding="UTF-8"?>
<svg width="20px" height="20px" viewBox="0 0 20 20" version="1.1" xmlns="http://www.w3.org/2000/svg" xmlns:xlink="http://www.w3.org/1999/xlink">
    <!-- Generator: Sketch 54.1 (76490) - https://sketchapp.com -->
    <title>叉</title>
    <desc>Created with Sketch.</desc>
    <g id="infinity改版1" stroke="none" stroke-width="1" fill="none" fill-rule="evenodd">
        <g id="自定义搜索结果" transform="translate(-346.000000, -194.000000)" fill-rule="nonzero">
            <g id="叉" transform="translate(346.000000, 194.000000)">
                <g id="编组">
                    <rect id="矩形" fill="#000000" opacity="0" x="0" y="0" width="20" height="20"></rect>
                    <path d="M10.9426667,10 L10,9.05733334 L14.3906667,4.66666667 C14.6509769,4.40635646 15.0730231,4.40635646 15.3333333,4.66666667 L15.3333333,4.66666667 C15.5936435,4.92697688 15.5936435,5.34902312 15.3333333,5.60933333 L10.9426667,10 L15.3333333,14.3906667 C15.5936435,14.6509769 15.5936435,15.0730231 15.3333333,15.3333333 L15.3333333,15.3333333 C15.0730231,15.5936435 14.6509769,15.5936435 14.3906667,15.3333333 L10,10.9426667 L5.60933333,15.3333333 C5.34902312,15.5936435 4.92697688,15.5936435 4.66666667,15.3333333 L4.66666667,15.3333333 C4.40635646,15.0730231 4.40635646,14.6509769 4.66666667,14.3906667 L9.05733334,10 L10,10.9426667 L5.60933333,15.3333333 C5.34902312,15.5936435 4.92697688,15.5936435 4.66666667,15.3333333 L4.66666667,15.3333333 C4.40635646,15.0730231 4.40635646,14.6509769 4.66666667,14.3906667 L9.05733334,10 L4.66666667,5.60933333 C4.40635646,5.34902312 4.40635646,4.92697688 4.66666667,4.66666667 L4.66666667,4.66666667 C4.92697688,4.40635646 5.34902312,4.40635646 5.60933333,4.66666667 L10,9.05733334 L14.3906667,4.66666667 C14.6509769,4.40635646 15.0730231,4.40635646 15.3333333,4.66666667 L15.3333333,4.66666667 C15.5936435,4.92697688 15.5936435,5.34902312 15.3333333,5.60933333 L10.9426667,10 Z" id="路径" stroke="#5FDB64" stroke-width="0.8" fill="#5DDB64"></path>
                </g>
            </g>
        </g>
    </g>
</svg>