<?xml version="1.0" encoding="UTF-8"?>
<svg width="20px" height="24px" viewBox="0 0 20 24" version="1.1" xmlns="http://www.w3.org/2000/svg" xmlns:xlink="http://www.w3.org/1999/xlink">
    <!-- Generator: Sketch 48.2 (47327) - http://www.bohemiancoding.com/sketch -->
    <title>icon-praise</title>
    <desc>Created with Sketch.</desc>
    <defs>
        <rect id="path-1" x="0" y="0" width="24" height="24"></rect>
    </defs>
    <g id="add" stroke="none" stroke-width="1" fill="none" fill-rule="evenodd" transform="translate(-27.000000, -762.000000)">
        <g id="icon-praise" transform="translate(26.000000, 762.000000)">
            <mask id="mask-2" fill="white">
                <use xlink:href="#path-1"></use>
            </mask>
            <g id="Mask" opacity="0.600000024"></g>
            <path d="M5.03296833,12.6443421 L6.54536523,7 L6.64237683,7.02599418 C8.61079756,7.55343093 9.84099294,9.46074586 9.57109988,11.4283534 L14.9017873,10 L15.677071,20.0946982 L7.57560871,22.2654785 L5.03296833,12.7762154 L5,12.7673815 L5.01530065,12.7102787 L5,12.6531759 L5.03296833,12.6443421 Z M1,13.7959528 L3.97053618,13 L6.54614489,22.6123026 L3.57560871,23.4082553 L1,13.7959528 Z M4.75265023,22.0938891 C5.02608054,22.0206236 5.19008263,21.7460515 5.11895916,21.4806151 C5.04783569,21.2151787 4.76851967,21.0593934 4.49508936,21.1326588 C4.22165906,21.2059242 4.05765696,21.4804963 4.12878044,21.7459327 C4.19990391,22.0113691 4.47921993,22.1671545 4.75265023,22.0938891 Z M17,6.40378289 L14.648859,7.23606798 L14.7138666,4.74280977 L13.1957739,2.76393202 L15.5870919,2.05529879 L17,0 L18.4129081,2.05529879 L20.8042261,2.76393202 L19.2861334,4.74280977 L19.351141,7.23606798 L17,6.40378289 Z" id="Combined-Shape" fill="#FFFFFF" mask="url(#mask-2)"></path>
        </g>
    </g>
</svg>