<?xml version="1.0" encoding="UTF-8"?>
<svg width="52px" height="52px" viewBox="0 0 52 52" version="1.1" xmlns="http://www.w3.org/2000/svg" xmlns:xlink="http://www.w3.org/1999/xlink">
    <!-- Generator: Sketch 54.1 (76490) - https://sketchapp.com -->
    <title>加载图片</title>
    <desc>Created with Sketch.</desc>
    <g id="infinity改版1" stroke="none" stroke-width="1" fill="none" fill-rule="evenodd">
        <g id="自定义搜索复制-15" transform="translate(-34.000000, -470.000000)">
            <g id="编组-9" transform="translate(30.000000, 134.000000)">
                <g id="编组-5" transform="translate(0.000000, 332.000000)">
                    <g id="编组-2">
                        <g id="加载图片" transform="translate(4.000000, 4.000000)">
                            <rect id="矩形" fill="#FFFFFF" opacity="0" x="0" y="0" width="52" height="52"></rect>
                            <path d="M35.5,24 C37.984375,24 40,21.7604167 40,19 C40,16.2395833 37.984375,14 35.5,14 C33.015625,14 31,16.2395833 31,19 C31,21.7604167 33.015625,24 35.5,24 L35.5,24 Z M35.5,17.0246914 C36.4814815,17.0246914 37.2777778,17.909465 37.2777778,19 C37.2777778,20.090535 36.4814815,20.9753086 35.5,20.9753086 C34.5185185,20.9753086 33.7222222,20.090535 33.7222222,19 C33.7222222,17.909465 34.5185185,17.0246914 35.5,17.0246914 Z" id="形状" fill="#EBEBEB" fill-rule="nonzero"></path>
                            <path d="M44,8 L8,8 C6.89453125,8 6,8.97839355 6,10.1875 L6,40.8125 C6,42.0216064 6.89453125,43 8,43 L44,43 C45.1054688,43 46,42.0216064 46,40.8125 L46,10.1875 C46,8.97839355 45.1054688,8 44,8 Z M43,39.171875 C43,39.4752197 42.7773437,39.71875 42.5,39.71875 L9.5,39.71875 C9.22265625,39.71875 9,39.4752197 9,39.171875 L9,36.7493896 L20.4335937,28.0891113 L28.78125,35.3907471 C29.859375,36.3349609 31.4335937,36.1384277 32.2929687,34.963501 L34.8085937,31.5241699 L42.9960937,36.7664795 L42.9960937,39.171875 L43,39.171875 Z M43,33.045166 L36.09375,28.5206299 C35.0078125,27.7259521 33.5703125,27.9694824 32.7539062,29.0888672 L30.2617187,32.4940186 L22.0195312,25.2735596 C21.1640625,24.5258789 19.9375,24.4788818 19.0351562,25.1582031 L9,32.7589111 L9,11.28125 L43,11.28125 L43,33.045166 L43,33.045166 Z" id="形状" fill="#EBEBEB" fill-rule="nonzero"></path>
                        </g>
                    </g>
                </g>
            </g>
        </g>
    </g>
</svg>