<?xml version="1.0" encoding="UTF-8"?>
<svg width="12px" height="12px" viewBox="0 0 12 12" version="1.1" xmlns="http://www.w3.org/2000/svg" xmlns:xlink="http://www.w3.org/1999/xlink">
    <!-- Generator: Sketch 48.1 (47250) - http://www.bohemiancoding.com/sketch -->
    <title>icon-search</title>
    <desc>Created with Sketch.</desc>
    <defs>
        <rect id="path-1" x="0" y="0" width="12" height="12"></rect>
    </defs>
    <g id="控件规范" stroke="none" stroke-width="1" fill="none" fill-rule="evenodd" transform="translate(-49.000000, -100.000000)">
        <g id="icon-search" transform="translate(49.000000, 100.000000)">
            <mask id="mask-2" fill="white">
                <use xlink:href="#path-1"></use>
            </mask>
            <g id="Mask"></g>
            <path d="M9.17160346,7.7573899 L11.2426407,9.82842712 C11.633165,10.2189514 11.633165,10.8521164 11.2426407,11.2426407 C10.8521164,11.633165 10.2189514,11.633165 9.82842712,11.2426407 L7.7573899,9.17160346 C6.96695688,9.69512324 6.01908233,10 5,10 C2.23857625,10 0,7.76142375 0,5 C0,2.23857625 2.23857625,0 5,0 C7.76142375,0 10,2.23857625 10,5 C10,6.01908233 9.69512324,6.96695688 9.17160346,7.7573899 Z M5,8 C6.65685425,8 8,6.65685425 8,5 C8,3.34314575 6.65685425,2 5,2 C3.34314575,2 2,3.34314575 2,5 C2,6.65685425 3.34314575,8 5,8 Z" id="Combined-Shape" fill="#2ECC71" mask="url(#mask-2)"></path>
        </g>
    </g>
</svg>