<?xml version="1.0" encoding="UTF-8"?>
<svg width="20px" height="20px" viewBox="0 0 20 20" version="1.1" xmlns="http://www.w3.org/2000/svg" xmlns:xlink="http://www.w3.org/1999/xlink">
    <!-- Generator: Sketch 48.1 (47250) - http://www.bohemiancoding.com/sketch -->
    <title>icon-Settings</title>
    <desc>Created with Sketch.</desc>
    <defs></defs>
    <g id="控件规范" stroke="none" stroke-width="1" fill="none" fill-rule="evenodd" transform="translate(-206.000000, -28.000000)">
        <g id="icon-Settings" transform="translate(206.000000, 28.000000)" fill="#ffffff">
            <path d="M9.32883795,0 L10.6069493,0 C10.997784,0 11.2268436,0.146415668 11.318994,0.377375049 C11.8360601,1.67171296 13.1014459,2.58633551 14.5802403,2.58633551 C15.0570821,2.58633551 15.5118369,2.49140667 15.9262212,2.31910132 C16.1561584,2.2235874 16.4209079,2.27887724 16.5970175,2.45483932 L17.6272005,3.48516097 C17.8012623,3.65907528 17.8607944,3.92119005 17.7665962,4.14820016 C17.2382673,5.42147527 17.4919003,6.94238448 18.5270564,7.97753302 C18.8557261,8.30590782 19.2328114,8.55573595 19.6356403,8.72672488 C19.8598729,8.82194626 20,9.04822502 20,9.29176357 L20,10.7869294 C20,11.0301754 19.8603117,11.2557228 19.6366642,11.351383 C18.3837113,11.8876066 17.505796,13.1313353 17.505796,14.58028 C17.505796,15.0354703 17.5922418,15.470183 17.7499214,15.8693522 C17.8401703,16.097825 17.7845875,16.3577457 17.6106719,16.5313675 L16.5414348,17.6008893 C16.370152,17.7720245 16.1133011,17.8330189 15.8881909,17.7440871 C14.6266081,17.2458935 13.1347956,17.5069844 12.1147053,18.5272134 C11.7860356,18.8555882 11.5364981,19.2329633 11.3653617,19.6356429 C11.2701396,19.8598739 11.0440055,20 10.8004651,20 L9.30514214,20 C9.06189435,20 8.83634529,19.8603127 8.7406844,19.6366668 C8.20460313,18.3835769 6.96071907,17.5056679 5.51161753,17.5056679 C5.03492207,17.5056679 4.58016719,17.6008893 4.16578295,17.7730484 C3.9356995,17.8685623 3.67109622,17.8132725 3.49498658,17.6373104 L2.46480367,16.6069888 C2.29088808,16.4332207 2.23106346,16.1711059 2.32540791,15.9439496 C2.8534443,14.6708207 2.60010385,13.1497652 1.56480147,12.1146167 C1.21682403,11.7667881 0.813995158,11.5070136 0.38395998,11.3357322 C0.150658583,11.2425585 0,11.0146708 0,10.76338 L0,9.48513172 C0,9.09444615 0.146270469,8.865242 0.377231539,8.77309228 C1.67157892,8.25602996 2.58620816,6.99065339 2.58620816,5.51172349 C2.58620816,5.01338365 2.48235612,4.53903199 2.29498365,4.10958503 C2.19405703,3.87847938 2.24876219,3.60919742 2.42706589,3.43074875 L3.32077845,2.53718899 C3.59722964,2.26073983 3.86431951,2.20252461 4.09337907,2.30213407 C5.37734124,2.86088317 6.92722313,2.61515058 7.97744509,1.5649363 C8.32542254,1.21710767 8.58519889,0.814135475 8.75648161,0.384249711 C8.84936336,0.15080375 9.07739902,0 9.32883795,0 Z M6.57894737,10.1973684 C6.57894737,12.1231223 8.14003564,13.6842105 10.0657895,13.6842105 C11.9915433,13.6842105 13.5526316,12.1231223 13.5526316,10.1973684 C13.5526316,8.27161458 11.9915433,6.71052632 10.0657895,6.71052632 C8.14003564,6.71052632 6.57894737,8.27161458 6.57894737,10.1973684 Z" id="Clip-2"></path>
        </g>
    </g>
</svg>