<?xml version="1.0" encoding="UTF-8"?>
<svg width="12px" height="12px" viewBox="0 0 12 12" version="1.1" xmlns="http://www.w3.org/2000/svg" xmlns:xlink="http://www.w3.org/1999/xlink">
    <!-- Generator: Sketch 48.1 (47250) - http://www.bohemiancoding.com/sketch -->
    <title>icon-setting</title>
    <desc>Created with Sketch.</desc>
    <defs>
        <rect id="path-1" x="0" y="0" width="12" height="12"></rect>
    </defs>
    <g id="控件规范" stroke="none" stroke-width="1" fill="none" fill-rule="evenodd" transform="translate(-115.000000, -100.000000)">
        <g id="icon-setting" transform="translate(115.000000, 100.000000)">
            <mask id="mask-2" fill="#ffffff">
                <use xlink:href="#path-1"></use>
            </mask>
            <g id="Mask"></g>
            <path d="M6,10 C3.790861,10 2,8.209139 2,6 C2,3.790861 3.790861,2 6,2 C8.209139,2 10,3.790861 10,6 C10,8.209139 8.209139,10 6,10 Z M6,8 C7.1045695,8 8,7.1045695 8,6 C8,4.8954305 7.1045695,4 6,4 C4.8954305,4 4,4.8954305 4,6 C4,7.1045695 4.8954305,8 6,8 Z" id="Combined-Shape" fill="#ffffff" mask="url(#mask-2)"></path>
            <path d="M5.17157288,4 L4,5.17157288 L4,6.82842712 L5.17157288,8 L6.82842712,8 L8,6.82842712 L8,5.17157288 L6.82842712,4 L5.17157288,4 Z M5,3.58578644 L5,0 L7,0 L7,3.58578644 L9.53553391,1.05025253 L10.9497475,2.46446609 L8.41421356,5 L12,5 L12,7 L8.41421356,7 L10.9497475,9.53553391 L9.53553391,10.9497475 L7,8.41421356 L7,12 L5,12 L5,8.41421356 L2.46446609,10.9497475 L1.05025253,9.53553391 L3.58578644,7 L2.22044605e-16,7 L-1.45349435e-16,5 L3.58578644,5 L1.05025253,2.46446609 L2.46446609,1.05025253 L5,3.58578644 Z" id="Rectangle-31" fill="#2ECC71" mask="url(#mask-2)"></path>
        </g>
    </g>
</svg>