<?xml version="1.0" encoding="UTF-8"?>
<svg width="20px" height="20px" viewBox="0 0 20 20" version="1.1" xmlns="http://www.w3.org/2000/svg" xmlns:xlink="http://www.w3.org/1999/xlink">
    <!-- Generator: Sketch 54.1 (76490) - https://sketchapp.com -->
    <title>叉</title>
    <desc>Created with Sketch.</desc>
    <g id="infinity改版1" stroke="none" stroke-width="1" fill="none" fill-rule="evenodd">
        <g id="自定义搜索结果" transform="translate(-312.000000, -234.000000)" fill="#000" fill-rule="nonzero" stroke="#000" stroke-width="0.72">
            <g id="编组-2" transform="translate(312.000000, 234.000000)">
                <g id="编组" transform="translate(10.000000, 9.000000) rotate(-45.000000) translate(-10.000000, -9.000000) translate(4.000000, 3.000000)">
                    <path d="M6.84839999,6 L6,5.15160001 L9.9516,1.2 C10.1858792,0.965720814 10.5657208,0.965720814 10.8,1.2 L10.8,1.2 C11.0342792,1.43427919 11.0342792,1.81412081 10.8,2.0484 L6.84839999,6 L10.8,9.9516 C11.0342792,10.1858792 11.0342792,10.5657208 10.8,10.8 L10.8,10.8 C10.5657208,11.0342792 10.1858792,11.0342792 9.9516,10.8 L6,6.84839999 L2.0484,10.8 C1.81412081,11.0342792 1.43427919,11.0342792 1.2,10.8 L1.2,10.8 C0.965720814,10.5657208 0.965720814,10.1858792 1.2,9.9516 L5.15160001,6 L6,6.84839999 L2.0484,10.8 C1.81412081,11.0342792 1.43427919,11.0342792 1.2,10.8 L1.2,10.8 C0.965720814,10.5657208 0.965720814,10.1858792 1.2,9.9516 L5.15160001,6 L1.2,2.0484 C0.965720814,1.81412081 0.965720814,1.43427919 1.2,1.2 L1.2,1.2 C1.43427919,0.965720814 1.81412081,0.965720814 2.0484,1.2 L6,5.15160001 L9.9516,1.2 C10.1858792,0.965720814 10.5657208,0.965720814 10.8,1.2 L10.8,1.2 C11.0342792,1.43427919 11.0342792,1.81412081 10.8,2.0484 L6.84839999,6 Z" id="路径"></path>
                </g>
            </g>
        </g>
    </g>
</svg>