<?xml version="1.0" encoding="UTF-8"?>
<svg width="14px" height="14px" viewBox="0 0 14 14" version="1.1" xmlns="http://www.w3.org/2000/svg" xmlns:xlink="http://www.w3.org/1999/xlink">
    <!-- Generator: Sketch 48.1 (47250) - http://www.bohemiancoding.com/sketch -->
    <title>Radio On</title>
    <desc>Created with Sketch.</desc>
    <defs></defs>
    <g id="控件规范" stroke="none" stroke-width="1" fill="none" fill-rule="evenodd" transform="translate(-97.000000, -68.000000)">
        <g id="Radio-On" transform="translate(97.000000, 68.000000)">
            <circle id="Oval" fill="#FFFFFF" cx="7" cy="7" r="7"></circle>
            <path d="M7,14 C3.13400675,14 0,10.8659932 0,7 C0,3.13400675 3.13400675,0 7,0 C10.8659932,0 14,3.13400675 14,7 C14,10.8659932 10.8659932,14 7,14 Z M7,13 C10.3137085,13 13,10.3137085 13,7 C13,3.6862915 10.3137085,1 7,1 C3.6862915,1 1,3.6862915 1,7 C1,10.3137085 3.6862915,13 7,13 Z" id="Combined-Shape" fill="#2ECC71"></path>
            <circle id="Oval-5" fill="#2ECC71" cx="7" cy="7" r="4"></circle>
        </g>
    </g>
</svg>