<?xml version="1.0" standalone="no"?><!DOCTYPE svg PUBLIC "-//W3C//DTD SVG 1.1//EN" "http://www.w3.org/Graphics/SVG/1.1/DTD/svg11.dtd"><svg t="1525674222004" class="icon" style="" viewBox="0 0 1024 1024" version="1.1" xmlns="http://www.w3.org/2000/svg" p-id="1752" xmlns:xlink="http://www.w3.org/1999/xlink" width="64" height="64"><defs><style type="text/css"></style></defs><path d="M145.254 386.031h0.4l210.591-2.122c22.676-0.24 40.865-18.791 40.626-41.448-0.24-22.639-17.15-40.367-41.43-40.608l-109.7 1.103c56.573-97.204 159.865-157.52 272.774-157.52 174.127 0 315.84 141.696 315.84 315.863 0 22.656 18.351 41.025 41.028 41.025 22.678 0 41.028-18.37 41.028-41.025 0-219.404-178.494-397.92-397.897-397.92-135.666 0-260.191 69.336-333.193 181.982L184.2 134.036c-0.24-22.52-18.59-40.63-41.028-40.63h-0.4c-22.676 0.222-40.867 18.773-40.626 41.431l2.082 210.57c0.217 22.218 18.77 40.624 41.026 40.624zM918.735 577.19c-0.236-23.95-19.157-38.317-41.426-40.628l-210.63 2.143c-22.674 0.242-40.867 18.791-40.625 41.451 0.24 22.517 18.59 40.606 41.027 40.606h0.4l109.7-1.12c-56.572 97.219-159.864 157.52-272.772 157.52-174.127 0-315.883-141.692-315.883-315.863 0-22.659-18.35-41.028-41.025-41.028-22.679 0-41.03 18.371-41.03 41.028 0 219.404 178.535 397.92 397.938 397.92 135.666 0 260.19-69.336 333.233-181.985l1.12 111.326c0.243 22.519 18.512 40.627 41.031 40.627h0.4c22.679-0.22 40.869-18.77 40.627-41.427l-2.085-210.57z" fill="#ffffff" p-id="1753"></path></svg>