<?xml version="1.0" standalone="no"?><!DOCTYPE svg PUBLIC "-//W3C//DTD SVG 1.1//EN" "http://www.w3.org/Graphics/SVG/1.1/DTD/svg11.dtd"><svg t="1534311496086" class="icon" style="" viewBox="0 0 1024 1024" version="1.1" xmlns="http://www.w3.org/2000/svg" p-id="2334" xmlns:xlink="http://www.w3.org/1999/xlink" width="48" height="48"><defs><style type="text/css"></style></defs><path d="M998.059 876.893L799.245 678.079c47.386-69.553 75.115-153.559 75.115-244.06C874.36 194.305 680.018 0.005 440.341 0.005 200.648 0.005 6.332 194.305 6.332 434.019c0 239.715 194.315 434.015 434.009 434.015 84.01 0 162.395-23.937 228.848-65.271 0.646 0.71 1.219 1.462 1.896 2.14l199.481 199.481c29.669 29.658 82.246 25.166 117.457-10.034 35.202-35.211 39.694-87.788 10.036-117.457zM93.135 434.02c0-191.46 155.756-347.211 347.206-347.211 191.455 0 347.216 155.751 347.216 347.211S631.796 781.231 440.341 781.231c-191.449 0-347.206-155.752-347.206-347.211z" fill="#ffffff" p-id="2335"></path></svg>