<?xml version="1.0" encoding="UTF-8" standalone="no"?>
<!-- Generator: Adobe Illustrator 12.0.0, SVG Export Plug-In . SVG Version: 6.00 Build 51448)  -->

<svg
   xmlns:dc="http://purl.org/dc/elements/1.1/"
   xmlns:cc="http://creativecommons.org/ns#"
   xmlns:rdf="http://www.w3.org/1999/02/22-rdf-syntax-ns#"
   xmlns:svg="http://www.w3.org/2000/svg"
   xmlns="http://www.w3.org/2000/svg"
   xmlns:xlink="http://www.w3.org/1999/xlink"
   xmlns:sodipodi="http://sodipodi.sourceforge.net/DTD/sodipodi-0.dtd"
   xmlns:inkscape="http://www.inkscape.org/namespaces/inkscape"
   height="135.994"
   id="Layer_1"
   inkscape:version="0.47pre4 r22446"
   sodipodi:docname="list-add.svg"
   sodipodi:version="0.32"
   space="preserve"
   style="overflow:visible;enable-background:new 0 0 136.484 135.994;"
   version="1.1"
   viewBox="0 0 136.484 135.994"
   width="136.484">
  <metadata
     id="metadata3953">
    <rdf:RDF>
      <cc:Work
         rdf:about="">
        <dc:title>Tasto 2</dc:title>
        <dc:description />
        <dc:subject>
          <rdf:Bag>
            <rdf:li>unsorted</rdf:li>
          </rdf:Bag>
        </dc:subject>
        <dc:publisher>
          <cc:Agent
             rdf:about="http://www.openclipart.org/">
            <dc:title>Open Clip Art Library</dc:title>
          </cc:Agent>
        </dc:publisher>
        <dc:creator>
          <cc:Agent>
            <dc:title>Architetto Francesco Rollandin</dc:title>
          </cc:Agent>
        </dc:creator>
        <dc:rights>
          <cc:Agent>
            <dc:title>Architetto Francesco Rollandin</dc:title>
          </cc:Agent>
        </dc:rights>
        <dc:date />
        <dc:format>image/svg+xml</dc:format>
        <dc:type
           rdf:resource="http://purl.org/dc/dcmitype/StillImage" />
        <cc:license
           rdf:resource="http://web.resource.org/cc/PublicDomain" />
        <dc:language>en</dc:language>
      </cc:Work>
      <cc:License
         rdf:about="http://web.resource.org/cc/PublicDomain">
        <cc:permits
           rdf:resource="http://web.resource.org/cc/Reproduction" />
        <cc:permits
           rdf:resource="http://web.resource.org/cc/Distribution" />
        <cc:permits
           rdf:resource="http://web.resource.org/cc/DerivativeWorks" />
      </cc:License>
    </rdf:RDF>
  </metadata>
  <defs
     id="defs39">
    <linearGradient
       id="linearGradient5212">
      <stop
         id="stop5214"
         offset="0"
         style="stop-color:#dafeff;stop-opacity:0.45112783;" />
      <stop
         style="stop-color:#dafeff;stop-opacity:1;"
         offset="0.5"
         id="stop5218" />
      <stop
         id="stop5216"
         offset="1"
         style="stop-color:#dafeff;stop-opacity:0.32330826;" />
    </linearGradient>
    <radialGradient
       r="105.1645"
       id="radialGradient5174"
       gradientUnits="userSpaceOnUse"
       cy="36.194801"
       cx="52.408199">
      <stop
         style="stop-color:#D1F593"
         offset="0"
         id="stop5176" />
      <stop
         style="stop-color:#81CE09"
         offset="1"
         id="stop5178" />
    </radialGradient>
    <inkscape:perspective
       sodipodi:type="inkscape:persp3d"
       inkscape:vp_x="0 : 67.997002 : 1"
       inkscape:vp_y="0 : 1000 : 0"
       inkscape:vp_z="136.48399 : 67.997002 : 1"
       inkscape:persp3d-origin="68.241997 : 45.331334 : 1"
       id="perspective3975" />
    <inkscape:perspective
       id="perspective5188"
       inkscape:persp3d-origin="0.5 : 0.33333333 : 1"
       inkscape:vp_z="1 : 0.5 : 1"
       inkscape:vp_y="0 : 1000 : 0"
       inkscape:vp_x="0 : 0.5 : 1"
       sodipodi:type="inkscape:persp3d" />
    <linearGradient
       inkscape:collect="always"
       xlink:href="#linearGradient5212-4"
       id="linearGradient5210"
       x1="70.519096"
       y1="1263.7998"
       x2="107.4064"
       y2="1263.7998"
       gradientUnits="userSpaceOnUse"
       gradientTransform="matrix(-0.86413044,0,0,-0.88557215,150.87476,1237.2052)" />
    <inkscape:perspective
       id="perspective5228"
       inkscape:persp3d-origin="0.5 : 0.33333333 : 1"
       inkscape:vp_z="1 : 0.5 : 1"
       inkscape:vp_y="0 : 1000 : 0"
       inkscape:vp_x="0 : 0.5 : 1"
       sodipodi:type="inkscape:persp3d" />
    <linearGradient
       inkscape:collect="always"
       xlink:href="#linearGradient5212-4"
       id="linearGradient5210-6"
       x1="70.519096"
       y1="1263.7998"
       x2="107.4064"
       y2="1263.7998"
       gradientUnits="userSpaceOnUse"
       gradientTransform="translate(-0.75552229,-3.966492)" />
    <linearGradient
       id="linearGradient5212-4">
      <stop
         id="stop5214-3"
         offset="0"
         style="stop-color:#4972de;stop-opacity:0.4509804;" />
      <stop
         style="stop-color:#4972de;stop-opacity:1;"
         offset="0.5"
         id="stop5218-7" />
      <stop
         id="stop5216-6"
         offset="1"
         style="stop-color:#4972de;stop-opacity:0.4509804;" />
    </linearGradient>
    <linearGradient
       y2="1263.7998"
       x2="107.4064"
       y1="1263.7998"
       x1="70.519096"
       gradientTransform="matrix(-1.1195652,0,0,-1.1890547,167.51668,1613.2368)"
       gradientUnits="userSpaceOnUse"
       id="linearGradient5238"
       xlink:href="#linearGradient5212-4"
       inkscape:collect="always" />
  </defs>
  <sodipodi:namedview
     bordercolor="#666666"
     borderopacity="1.0"
     id="base"
     inkscape:current-layer="Layer_1"
     inkscape:cx="44.449512"
     inkscape:cy="57.249314"
     inkscape:pageopacity="0.0"
     inkscape:pageshadow="2"
     inkscape:window-height="771"
     inkscape:window-width="1098"
     inkscape:window-x="22"
     inkscape:window-y="29"
     inkscape:zoom="3.7436715"
     pagecolor="#ffffff"
     showgrid="false"
     inkscape:window-maximized="0" />
  <g
     id="g3"
     transform="matrix(0.98616096,0,0,0.98888879,1.3100114,1.1425762)">
    <path
       d="m 52.021,131.806 c 0,2.605 28.656,1.382 31.602,0.817 4.888,-0.935 -9.083,-3.122 -10.272,-3.176 -1.909,-0.085 -21.333,-0.904 -21.33,2.359"
       id="path5"
       style="fill:#67ba06" />
    <radialGradient
       cx="52.408199"
       cy="36.194801"
       gradientUnits="userSpaceOnUse"
       id="XMLID_2_"
       r="105.1645"
       xlink:href="#radialGradient5174">
      <stop
         id="stop8"
         offset="0"
         style="stop-color:#000000;stop-opacity:1;" />
      <stop
         id="stop10"
         offset="1"
         style="stop-color:#6b6b6b;stop-opacity:1;" />
    </radialGradient>
    <path
       d="m 88.759,126.635 c 0,-8.091 0,-16.184 0,-24.274 0,-4.036 0,-8.071 0,-12.105 0,-2.35 1.353,-1.482 3.599,-1.482 9.931,0 19.864,0 29.797,-0.002 3.059,0 6.41,0.399 9.089,-1.409 4.131,-2.791 3.64,-7.45 3.64,-11.765 0,-6.67 2.961,-22.258 -3.643,-26.719 -5.771,-3.898 -18.467,-1.411 -24.9,-1.411 -2.933,0 -17.579,1.794 -17.579,-1.483 0,-9.625 0,-19.249 -0.002,-28.873 0,-7.948 -0.023,-15.768 -10.349,-15.768 -4.741,0 -9.482,0 -14.226,0 -3.513,0 -8.332,-0.769 -11.684,0.65 -7.721,3.266 -5.047,17.326 -5.047,23.847 0,1.712 0.272,21.627 -0.249,21.627 -8.859,0 -17.717,0 -26.576,0 -7.028,0 -19.301,-1.94 -19.299,8.622 0,8.11 10e-4,16.221 10e-4,24.331 0,10.633 13.667,8.354 20.558,8.354 2.072,0 25.565,-0.267 25.565,0.25 0,10.036 10e-4,20.071 10e-4,30.106 0,3.248 -0.659,7.626 0.648,10.721 2.284,5.405 7.696,5.046 12.526,5.046 7.361,-0.002 28.135,3.73 28.13,-8.263"
       id="path12"
       style="fill:url(#XMLID_2_);fill-opacity:1" />
    <path
       d="m 7.252,52.4 c 2.606,0 1.384,28.656 0.819,31.603 C 7.133,88.892 4.947,74.92 4.893,73.732 4.808,71.825 3.991,52.397 7.252,52.4"
       id="path14"
       style="fill:#ffffff;fill-opacity:1;stroke:none" />
    <path
       d="m 131.424,52.4 c 2.605,0 1.385,28.656 0.821,31.603 -0.938,4.889 -3.126,-9.083 -3.18,-10.271 -0.085,-1.907 -0.899,-21.335 2.359,-21.332"
       id="path16"
       style="fill:#ffffff;fill-opacity:1;stroke:none" />
    <path
       d="m 52.523,84.487 c 2.662,0.003 1.336,41.25 0.805,45.053 -0.355,2.529 -1.286,2.272 -1.821,-0.051 -1.221,-5.301 -1.267,-10.991 -1.39,-16.4 -0.051,-2.197 -0.788,-28.605 2.406,-28.602"
       id="path18"
       style="fill:#ffffff;fill-opacity:1;stroke:none" />
    <path
       d="m 90.715,52.665 c 0,2.655 35.874,1.289 39.165,0.886 1.56,-0.192 3.561,-0.983 0.977,-1.775 -4.489,-1.373 -9.612,-1.36 -14.254,-1.5 -2.092,-0.063 -25.888,-0.848 -25.888,2.389"
       id="path20"
       style="fill:#ffffff;fill-opacity:1;stroke:none" />
    <path
       d="m 7.252,52.4 c 0.003,-2.251 42.618,-1.799 42.62,0.001 0,1.925 -42.614,5.579 -42.62,-0.001"
       id="path22"
       style="fill:#ffffff;fill-opacity:1;stroke:none" />
    <path
       d="m 52.021,7.633 c 0,2.606 28.656,1.382 31.602,0.818 C 88.51,7.516 74.54,5.328 73.35,5.274 71.442,5.189 52.018,4.371 52.021,7.633"
       id="path24"
       style="fill:#ffffff;fill-opacity:1;stroke:none" />
    <path
       d="m 52.021,7.633 c -2.248,0 -1.804,42.302 -10e-4,42.302 1.96,10e-4 5.559,-42.302 10e-4,-42.302"
       id="path26"
       style="fill:#ffffff;fill-opacity:1;stroke:none" />
    <path
       d="m 84.796,6.671 c -2.252,0 -1.262,24.248 -1.252,26.235 0.018,3.709 -0.439,8.161 0.687,11.765 0.868,2.78 2.254,-4.511 2.307,-4.922 0.425,-3.336 3.336,-33.084 -1.742,-33.078"
       id="path28"
       style="fill:#ffffff;fill-opacity:1;stroke:none" />
    <path
       d="m 84.795,85.796 c -1.948,-0.005 -1.256,23.107 -1.256,25.114 0,5.748 -0.267,11.604 0.327,17.332 0.328,3.175 1.466,3.464 2.171,0.211 0.702,-3.228 3.572,-42.668 -1.242,-42.657"
       id="path30"
       style="fill:#ffffff;fill-opacity:1;stroke:none" />
    <path
       d="m 7.702,83.765 c -0.003,-2.246 24.25,-1.262 26.234,-1.25 3.711,0.018 8.162,-0.439 11.765,0.685 2.782,0.868 -4.512,2.256 -4.92,2.308 -3.334,0.424 -33.09,3.329 -33.079,-1.743"
       id="path32"
       style="fill:#ffffff;fill-opacity:1;stroke:none" />
    <path
       d="m 87,83.769 c -0.002,-1.971 22.219,-1.261 24.128,-1.261 5.747,0 11.603,-0.263 17.332,0.33 3.173,0.328 3.465,1.465 0.212,2.172 C 125.435,85.713 87,88.664 87,83.769"
       id="path34"
       style="fill:#ffffff;fill-opacity:1;stroke:none" />
    <path
       d="M 87.034,3.068 C 82.509,-1.456 72.53,0.36 66.782,0.36 c -6.962,0 -18.207,-1.921 -20.12,7.384 -1.219,5.928 -0.188,12.916 -0.188,18.911 0,6.611 0,13.222 0,19.832 -8.833,-0.008 -17.665,-0.001 -26.499,0 -7.965,0 -19.625,-1.492 -19.625,10.034 0,7.876 -0.785,16.157 0,23.991 0,11.92 15.899,9.243 23.558,9.243 2.705,0 22.568,-1.096 22.568,0.987 0,9.688 0,19.378 0,29.068 0,8.969 1.344,16.066 12.167,16.066 4.877,0 9.755,0 14.632,0 3.909,0.002 8.925,0.745 12.349,-1.544 6.667,-4.459 4.118,-18.015 4.118,-24.75 0,-5.028 0,-10.056 0,-15.086 0,-3.111 -1.063,-4.742 2.208,-4.742 9.972,0 19.946,0 29.917,0 3.367,0 6.975,0.41 9.92,-1.581 4.464,-3.017 4.08,-7.903 4.08,-12.576 0,-7.165 2.961,-22.769 -4.08,-27.53 -2.945,-1.994 -6.557,-1.582 -9.92,-1.582 -5.479,0 -10.956,0 -16.436,0 -4.494,0 -8.987,0 -13.481,0 -3.271,0 -2.208,-1.633 -2.208,-4.743 0,-9.967 0,-19.933 0,-29.899 C 89.741,8.606 89.511,5.544 87.034,3.068 M 2.313,80.511 c 0,-7.999 -0.001,-15.994 -0.001,-23.993 0,-10.355 12.502,-8.07 19.41,-8.07 8.824,0 17.647,0 26.47,0 0.51,0 0.244,-19.771 0.244,-21.453 0,-5.939 -2.714,-20.589 4.082,-23.931 2.918,-1.435 7.306,-0.742 10.422,-0.742 5.158,0.002 10.314,0.003 15.471,0.003 10.646,0 9.368,9.181 9.368,16.95 0,9.408 0,18.817 0,28.227 0,3.364 37.98,-1.799 43.395,2.547 5.7,4.578 2.729,20.288 2.729,26.59 0,4.008 0.2,8.305 -4.083,10.41 -2.694,1.323 -6.632,0.741 -9.521,0.741 -9.923,0 -19.847,0 -29.768,0 -2.088,0 -2.753,-0.648 -2.753,1.454 0,4.422 0,8.845 0,13.268 0,7.827 0.983,16.351 0,24.124 0,10.686 -19.483,7.277 -26.028,7.277 -4.356,-0.002 -9.753,0.843 -12.347,-3.645 -1.585,-2.744 -0.967,-6.932 -0.967,-9.959 0,-10.356 0,-20.712 0,-31.065 C 48.437,82.271 2.3,96.488 2.313,80.511"
       id="path36"
       style="fill:#000000;fill-opacity:1" />
  </g>
  <path
     d="m 52.233851,130.63806 c 0,-2.606 28.655999,-1.382 31.601999,-0.818 4.88701,0.935 -9.082998,3.123 -10.272998,3.177 -1.908,0.085 -21.332001,0.903 -21.329001,-2.359"
     id="path24-6"
     style="fill:#ffffff;fill-opacity:1;stroke:none;overflow:visible" />
  <path
     style="fill:url(#linearGradient5210);fill-opacity:1;stroke:none"
     d="m 89.316117,109.07896 -24.088434,26.1688 -5.75471,-0.1672 29.868804,-33.4535 -0.0257,7.4519 z"
     id="path5202"
     sodipodi:nodetypes="ccccc" />
  <path
     style="fill:url(#linearGradient5238);fill-opacity:1;stroke:none;overflow:visible"
     d="m 88.00617,95.462055 -35.111252,39.124605 -3.420377,-3.0579 38.320169,-43.029005 0.21146,6.9623 z"
     id="path5202-7"
     sodipodi:nodetypes="ccccc" />
</svg>
