<?xml version="1.0" encoding="UTF-8" standalone="no"?>
<!-- Created with Inkscape (http://www.inkscape.org/) -->

<svg
   xmlns:dc="http://purl.org/dc/elements/1.1/"
   xmlns:cc="http://creativecommons.org/ns#"
   xmlns:rdf="http://www.w3.org/1999/02/22-rdf-syntax-ns#"
   xmlns:svg="http://www.w3.org/2000/svg"
   xmlns="http://www.w3.org/2000/svg"
   xmlns:xlink="http://www.w3.org/1999/xlink"
   xmlns:sodipodi="http://sodipodi.sourceforge.net/DTD/sodipodi-0.dtd"
   xmlns:inkscape="http://www.inkscape.org/namespaces/inkscape"
   width="128"
   height="128"
   id="svg4543"
   sodipodi:version="0.32"
   inkscape:version="0.47pre0 r21549"
   version="1.0"
   sodipodi:docname="trash.svg"
   inkscape:output_extension="org.inkscape.output.svg.inkscape"
   sodipodi:modified="true">
  <defs
     id="defs4545">
    <linearGradient
       inkscape:collect="always"
       id="linearGradient13334">
      <stop
         style="stop-color:#b3b3b3;stop-opacity:1;"
         offset="0"
         id="stop13336" />
      <stop
         style="stop-color:#b3b3b3;stop-opacity:0;"
         offset="1"
         id="stop13338" />
    </linearGradient>
    <linearGradient
       id="linearGradient6284">
      <stop
         style="stop-color:#37483e;stop-opacity:1;"
         offset="0"
         id="stop6286" />
      <stop
         style="stop-color:#536c53;stop-opacity:1;"
         offset="1"
         id="stop6288" />
    </linearGradient>
    <linearGradient
       id="linearGradient8740"
       inkscape:collect="always">
      <stop
         id="stop8742"
         offset="0"
         style="stop-color:#ffffff;stop-opacity:1;" />
      <stop
         id="stop8744"
         offset="1"
         style="stop-color:#ffffff;stop-opacity:0;" />
    </linearGradient>
    <radialGradient
       inkscape:collect="always"
       xlink:href="#linearGradient8740"
       id="radialGradient4858"
       gradientUnits="userSpaceOnUse"
       gradientTransform="matrix(1,0,0,0.930233,0,-0.240141)"
       cx="62.225391"
       cy="-3.4420195"
       fx="62.225391"
       fy="-3.4420195"
       r="10.081216" />
    <linearGradient
       inkscape:collect="always"
       id="linearGradient6111">
      <stop
         style="stop-color:#b3b3b3;stop-opacity:1;"
         offset="0"
         id="stop6113" />
      <stop
         style="stop-color:#b3b3b3;stop-opacity:0;"
         offset="1"
         id="stop6115" />
    </linearGradient>
    <linearGradient
       inkscape:collect="always"
       id="linearGradient5165">
      <stop
         style="stop-color:#ffffff;stop-opacity:1;"
         offset="0"
         id="stop5167" />
      <stop
         style="stop-color:#ffffff;stop-opacity:0;"
         offset="1"
         id="stop5169" />
    </linearGradient>
    <radialGradient
       inkscape:collect="always"
       xlink:href="#linearGradient5165"
       id="radialGradient2206"
       gradientUnits="userSpaceOnUse"
       gradientTransform="matrix(1.1211668,1.0585101,-0.9643558,1.0214394,43.144146,-61.486749)"
       cx="65.09185"
       cy="54.124912"
       fx="65.091843"
       fy="54.124912"
       r="42.964352" />
    <radialGradient
       inkscape:collect="always"
       xlink:href="#linearGradient5165"
       id="radialGradient3185"
       cx="65.468056"
       cy="56.718754"
       fx="65.468048"
       fy="56.718758"
       r="42.96875"
       gradientUnits="userSpaceOnUse"
       gradientTransform="matrix(1.1210521,1.0584018,-0.9642571,1.0213347,45.225651,-64.521398)" />
    <radialGradient
       inkscape:collect="always"
       xlink:href="#linearGradient6111"
       id="radialGradient6117"
       cx="46.165321"
       cy="41.136826"
       fx="46.165321"
       fy="41.136826"
       r="45.488403"
       gradientUnits="userSpaceOnUse"
       gradientTransform="matrix(1.5516333,0,0,1.5815088,-37.727284,-27.261977)" />
    <filter
       inkscape:collect="always"
       x="-0.1038961"
       width="1.2077922"
       y="-0.1038961"
       height="1.2077922"
       id="filter11008">
      <feGaussianBlur
         inkscape:collect="always"
         stdDeviation="4.7260679"
         id="feGaussianBlur11010" />
    </filter>
    <radialGradient
       inkscape:collect="always"
       xlink:href="#linearGradient6284"
       id="radialGradient6290"
       cx="102.51593"
       cy="101.69495"
       fx="102.51593"
       fy="101.69495"
       r="13.198329"
       gradientTransform="translate(0,6.9346245e-5)"
       gradientUnits="userSpaceOnUse" />
    <radialGradient
       inkscape:collect="always"
       xlink:href="#linearGradient6284"
       id="radialGradient6298"
       cx="95.081268"
       cy="94.544952"
       fx="95.081268"
       fy="94.544952"
       r="20.533518"
       gradientTransform="matrix(1,0,0,0.9906329,0,0.8856073)"
       gradientUnits="userSpaceOnUse" />
    <radialGradient
       inkscape:collect="always"
       xlink:href="#linearGradient13334"
       id="radialGradient13340"
       cx="91.636169"
       cy="76.001358"
       fx="91.636169"
       fy="76.001358"
       r="30.638056"
       gradientTransform="matrix(1.4989544,-1.6430417,1.7471085,1.5938955,-178.50489,106.57461)"
       gradientUnits="userSpaceOnUse" />
  </defs>
  <sodipodi:namedview
     id="base"
     pagecolor="#ffffff"
     bordercolor="#666666"
     borderopacity="1.0"
     inkscape:pageopacity="0.0"
     inkscape:pageshadow="2"
     inkscape:zoom="3.959798"
     inkscape:cx="65.523479"
     inkscape:cy="92.582758"
     inkscape:document-units="px"
     inkscape:current-layer="layer1"
     width="128px"
     height="128px"
     inkscape:window-width="1278"
     inkscape:window-height="956"
     inkscape:window-x="0"
     inkscape:window-y="23"
     showgrid="true"
     showguides="true"
     inkscape:guide-bbox="true" />
  <metadata
     id="metadata4548">
    <rdf:RDF>
      <cc:Work
         rdf:about="">
        <dc:format>image/svg+xml</dc:format>
        <dc:type
           rdf:resource="http://purl.org/dc/dcmitype/StillImage" />
      </cc:Work>
    </rdf:RDF>
  </metadata>
  <g
     inkscape:label="Livello 1"
     inkscape:groupmode="layer"
     id="layer1">
    <rect
       style="opacity:1;fill:#666666;fill-opacity:1;stroke:none;stroke-width:0.89999998;stroke-linecap:round;stroke-linejoin:miter;stroke-miterlimit:4;stroke-dasharray:none;stroke-dashoffset:0;stroke-opacity:1;filter:url(#filter11008)"
       id="rect9046"
       width="90.976807"
       height="90.976807"
       x="20.152"
       y="11.811193"
       rx="8.7811127"
       ry="8.7811127"
       transform="matrix(1.133182,0,0,1.133182,-10.259971,-1.5730389)" />
    <rect
       style="opacity:1;fill:#000000;fill-opacity:1;stroke:none;stroke-width:0.89999998;stroke-linecap:round;stroke-linejoin:miter;stroke-miterlimit:4;stroke-dasharray:none;stroke-dashoffset:0;stroke-opacity:1"
       id="rect2510"
       width="103.09328"
       height="103.09328"
       x="12.575425"
       y="11.811361"
       rx="9.9505997"
       ry="9.9505997" />
    <rect
       style="opacity:0.17316015;fill:url(#radialGradient6117);fill-opacity:1;stroke:none;stroke-width:0.89999998;stroke-linecap:round;stroke-linejoin:miter;stroke-miterlimit:4;stroke-dasharray:none;stroke-dashoffset:0;stroke-opacity:1"
       id="rect5140"
       width="103.09328"
       height="103.09328"
       x="12.575913"
       y="11.811193"
       rx="9.9505997"
       ry="9.9505997" />
    <path
       style="fill:url(#radialGradient6290);fill-opacity:1.0;fill-rule:evenodd;stroke:none;stroke-width:1px;stroke-linecap:butt;stroke-linejoin:miter;stroke-opacity:1"
       d="M 98.011316,114.87419 L 115.71426,97.22425 L 115.71426,88.49663 L 89.317602,114.89327 L 98.011316,114.87419 z "
       id="path2522"
       sodipodi:nodetypes="ccccc" />
    <path
       style="fill:url(#radialGradient6298);fill-opacity:1.0;fill-rule:evenodd;stroke:none;stroke-width:1px;stroke-linecap:butt;stroke-linejoin:miter;stroke-opacity:1"
       d="M 83.241469,114.86705 L 115.61479,82.931391 L 115.61479,74.20377 L 74.547753,114.88613 L 83.241469,114.86705 z "
       id="path2542"
       sodipodi:nodetypes="ccccc" />
    <path
       style="opacity:0.51082255;fill:url(#radialGradient2206);fill-opacity:1;stroke:url(#radialGradient3185);stroke-width:1.01986384;stroke-linecap:round;stroke-linejoin:miter;stroke-miterlimit:4;stroke-dasharray:none;stroke-dashoffset:0;stroke-opacity:1"
       d="M 27.0288,14.008214 C 20.508303,14.008214 15.236625,19.279893 15.236625,25.80039 L 15.236625,99.598871 C 15.236625,106.11937 20.508302,111.39105 27.0288,111.39105 L 100.82729,111.39105 C 107.34778,111.39105 112.61946,106.11937 112.61946,99.598871 L 112.61946,25.80039 C 112.61946,19.279893 107.34777,14.008214 100.82729,14.008214 L 27.0288,14.008214 z M 27.0288,15.03516 L 100.82729,15.03516 C 106.80041,15.03516 111.59251,19.827256 111.59251,25.80039 L 111.59251,99.598871 C 111.59251,105.57201 106.80042,110.3641 100.82729,110.3641 L 27.0288,110.3641 C 21.055666,110.3641 16.263571,105.572 16.263571,99.598871 L 16.263571,25.80039 C 16.263571,19.827256 21.055666,15.03516 27.0288,15.03516 z "
       id="rect2512" />
    <text
       xml:space="preserve"
       style="font-size:12.87574577px;font-style:normal;font-variant:normal;font-weight:normal;font-stretch:normal;text-align:start;line-height:125%;writing-mode:lr-tb;text-anchor:start;fill:#4d4d4d;fill-opacity:1;stroke:none;stroke-width:1px;stroke-linecap:butt;stroke-linejoin:miter;stroke-opacity:1;font-family:HandelGotDLig"
       x="67.991455"
       y="26.630772"
       id="text9042"
       sodipodi:linespacing="125%"><tspan
         sodipodi:role="line"
         id="tspan9044"
         x="67.991455"
         y="26.630772">TRASH</tspan></text>
    <text
       xml:space="preserve"
       style="font-size:12.87574577px;font-style:normal;font-variant:normal;font-weight:normal;font-stretch:normal;text-align:start;line-height:125%;writing-mode:lr-tb;text-anchor:start;fill:#ffffff;fill-opacity:1;stroke:none;stroke-width:1px;stroke-linecap:butt;stroke-linejoin:miter;stroke-opacity:1;font-family:HandelGotDLig"
       x="68.174713"
       y="26.909241"
       id="text5135"
       sodipodi:linespacing="125%"><tspan
         sodipodi:role="line"
         id="tspan5137"
         x="68.174713"
         y="26.909241">TRASH</tspan></text>
    <g
       transform="matrix(1.596239,0,0,1.5603796,21.436586,31.801481)"
       style="fill:#000000;fill-opacity:1;fill-rule:nonzero;stroke:url(#radialGradient4858);stroke-miterlimit:4"
       id="g4854" />
    <text
       xml:space="preserve"
       style="font-size:9.20166969px;font-style:normal;font-variant:normal;font-weight:normal;font-stretch:normal;text-align:start;line-height:125%;writing-mode:lr-tb;text-anchor:start;fill:#333333;fill-opacity:1;stroke:none;stroke-width:1px;stroke-linecap:butt;stroke-linejoin:miter;stroke-opacity:1;font-family:HandelGotDLig"
       x="21.824774"
       y="108"
       id="text10184"
       sodipodi:linespacing="125%"><tspan
         sodipodi:role="line"
         id="tspan10186"
         x="21.824774"
         y="108">full</tspan></text>
    <path
       style="fill:#4d4d4d;fill-opacity:1;stroke:none;stroke-width:0.625;stroke-miterlimit:4"
       d="M 52.018279,29.232615 L 35.466686,37.297115 L 33.001555,41.593486 L 41.347784,58.638105 L 58.709349,50.151011 L 49.623581,33.317689 L 52.018279,29.232615 z M 58.709349,50.151011 L 41.347784,58.638105 L 41.347784,72.090678 L 41.347784,76.563128 L 41.347784,82.831608 L 45.221561,84.874138 L 41.876026,83.183768 L 41.488649,84.134598 L 41.277352,85.367168 L 41.770378,86.529298 L 42.509917,87.233618 L 43.601618,87.902728 L 45.04548,88.184458 L 46.207614,87.973158 L 47.228882,87.304058 L 48.07407,86.353218 L 56.702028,90.896108 L 56.455515,91.529998 L 56.455515,92.621688 L 56.596379,93.642958 L 57.195054,94.593798 L 57.828945,95.227688 L 58.638916,95.685498 L 59.730617,95.826358 L 60.681453,95.826358 L 61.526641,95.438988 L 62.26618,94.945958 L 63.00572,94.135988 L 63.498746,92.832988 L 63.569178,91.600428 L 63.252233,90.543938 L 87.234435,78.323938 L 87.762677,79.028258 L 88.467,79.697368 L 89.347404,80.049528 L 90.227808,80.190388 L 91.178644,80.049528 L 92.235129,79.626938 L 93.185965,78.816958 L 93.643775,78.042208 L 93.925504,77.091368 L 93.855072,75.999668 L 93.467694,75.189698 L 93.714208,75.048838 L 93.714208,60.78629 L 94.277666,60.539777 L 94.277666,58.356376 L 75.19051,41.945647 L 58.709349,50.151011 z "
       id="path12361"
       sodipodi:nodetypes="cccccccccccccccccccccccccccccccccccccccccccccccccccccccc" />
    <path
       style="fill:#ffffff;fill-opacity:1;stroke:none;stroke-width:0.625;stroke-miterlimit:4"
       d="M 52.740613,29.459561 L 36.18902,37.524061 L 33.723889,41.820432 L 42.070118,58.865051 L 59.431683,50.377957 L 50.345915,33.544635 L 52.740613,29.459561 z M 59.431683,50.377957 L 42.070118,58.865051 L 42.070118,72.317622 L 42.070118,76.790074 L 42.070118,83.05855 L 45.943895,85.101087 L 42.59836,83.410711 L 42.210983,84.361548 L 41.999686,85.594113 L 42.492712,86.756246 L 43.232251,87.460569 L 44.323952,88.129676 L 45.767814,88.411406 L 46.929948,88.200109 L 47.951216,87.531002 L 48.796404,86.580166 L 57.424362,91.12305 L 57.177849,91.75694 L 57.177849,92.848638 L 57.318713,93.869906 L 57.917388,94.820743 L 58.551279,95.454633 L 59.36125,95.912443 L 60.452951,96.053308 L 61.403787,96.053308 L 62.248975,95.66593 L 62.988514,95.172904 L 63.728054,94.362933 L 64.22108,93.059935 L 64.291512,91.827373 L 63.974567,90.770888 L 87.956769,78.550882 L 88.485011,79.255205 L 89.189334,79.924312 L 90.069738,80.276474 L 90.950142,80.417338 L 91.900978,80.276474 L 92.957463,79.85388 L 93.908299,79.043908 L 94.366109,78.269153 L 94.647838,77.318317 L 94.577406,76.226616 L 94.190028,75.416644 L 94.436542,75.27578 L 94.436542,61.013236 L 95,60.766723 L 95,58.583322 L 75.912844,42.172593 L 59.431683,50.377957 z "
       id="path10328"
       sodipodi:nodetypes="cccccccccccccccccccccccccccccccccccccccccccccccccccccccc" />
    <path
       style="fill:url(#radialGradient13340);fill-opacity:1.0;stroke:none;stroke-width:0.625;stroke-miterlimit:4;opacity:0.73732719"
       d="M 52.740724,29.459253 L 36.189131,37.523753 L 33.724,41.820124 L 42.070229,58.864743 L 59.431794,50.377649 L 50.346026,33.544327 L 52.740724,29.459253 z M 59.431794,50.377649 L 42.070229,58.864743 L 42.070229,72.317314 L 42.070229,76.789766 L 42.070229,83.058242 L 45.944006,85.100779 L 42.598471,83.410403 L 42.211094,84.36124 L 41.999797,85.593805 L 42.492823,86.755938 L 43.232362,87.460261 L 44.324063,88.129368 L 45.767925,88.411098 L 46.930059,88.199801 L 47.951327,87.530694 L 48.796515,86.579858 L 57.424473,91.122742 L 57.17796,91.756632 L 57.17796,92.84833 L 57.318824,93.869598 L 57.917499,94.820435 L 58.55139,95.454325 L 59.361361,95.912135 L 60.453062,96.053 L 61.403898,96.053 L 62.249082,95.665622 L 62.988622,95.172596 L 63.728162,94.362625 L 64.221192,93.059627 L 64.291622,91.827065 L 63.974682,90.77058 L 87.956882,78.550574 L 88.485122,79.254897 L 89.189442,79.924004 L 90.069852,80.276166 L 90.950252,80.41703 L 91.901092,80.276166 L 92.957572,79.853572 L 93.908412,79.0436 L 94.366222,78.268845 L 94.647952,77.318009 L 94.577512,76.226308 L 94.190142,75.416336 L 94.436652,75.275472 L 94.436652,61.012928 L 95.000112,60.766415 L 95.000112,58.583014 L 75.912952,42.172285 L 59.431794,50.377649 z "
       id="path12363"
       sodipodi:nodetypes="cccccccccccccccccccccccccccccccccccccccccccccccccccccccc" />
  </g>
</svg>
