<?xml version="1.0" encoding="UTF-8" standalone="no"?>
<!-- Created with Inkscape (http://www.inkscape.org/) -->

<svg
   xmlns:dc="http://purl.org/dc/elements/1.1/"
   xmlns:cc="http://creativecommons.org/ns#"
   xmlns:rdf="http://www.w3.org/1999/02/22-rdf-syntax-ns#"
   xmlns:svg="http://www.w3.org/2000/svg"
   xmlns="http://www.w3.org/2000/svg"
   xmlns:sodipodi="http://sodipodi.sourceforge.net/DTD/sodipodi-0.dtd"
   xmlns:inkscape="http://www.inkscape.org/namespaces/inkscape"
   width="64px"
   height="64px"
   id="svg6514"
   sodipodi:version="0.32"
   inkscape:version="0.47pre0 r21549"
   sodipodi:docname="nm-signal-00.svg"
   inkscape:output_extension="org.inkscape.output.svg.inkscape"
   version="1.1">
  <defs
     id="defs6516" />
  <sodipodi:namedview
     id="base"
     pagecolor="#ffffff"
     bordercolor="#666666"
     borderopacity="1.0"
     inkscape:pageopacity="0.0"
     inkscape:pageshadow="2"
     inkscape:zoom="5.5"
     inkscape:cx="32"
     inkscape:cy="32"
     inkscape:current-layer="layer1"
     showgrid="true"
     inkscape:document-units="px"
     inkscape:grid-bbox="true"
     inkscape:window-width="1280"
     inkscape:window-height="800"
     inkscape:window-x="0"
     inkscape:window-y="0" />
  <metadata
     id="metadata6519">
    <rdf:RDF>
      <cc:Work
         rdf:about="">
        <dc:format>image/svg+xml</dc:format>
        <dc:type
           rdf:resource="http://purl.org/dc/dcmitype/StillImage" />
      </cc:Work>
    </rdf:RDF>
  </metadata>
  <g
     id="layer1"
     inkscape:label="Layer 1"
     inkscape:groupmode="layer">
    <path
       style="fill:#999999;fill-opacity:1;fill-rule:nonzero;stroke:none;stroke-width:3.125;stroke-linecap:round;stroke-linejoin:round;marker:none;marker-start:none;marker-mid:none;marker-end:none;stroke-miterlimit:4;stroke-dasharray:none;stroke-dashoffset:0;stroke-opacity:1;visibility:visible;display:inline;overflow:visible;enable-background:accumulate"
       d="M 32.181818,45.80905 C 30.179395,45.80905 28.393724,46.733936 27.080544,48.17864 L 32.181818,53.79082 L 37.283091,48.17864 C 35.969909,46.733936 34.184241,45.80905 32.181818,45.80905 z"
       id="path2263" />
    <path
       style="fill:#999999;fill-opacity:1;fill-rule:nonzero;stroke:none;stroke-width:3.125;stroke-linecap:round;stroke-linejoin:round;marker:none;marker-start:none;marker-mid:none;marker-end:none;stroke-miterlimit:4;stroke-dasharray:none;stroke-dashoffset:0;stroke-opacity:1;visibility:visible;display:inline;overflow:visible;enable-background:accumulate"
       d="M 32.181818,34.97576 C 27.461605,34.97576 23.207783,37.106956 20.112278,40.51248 L 24.120613,44.922264 C 26.184281,42.651912 29.035008,41.247446 32.181818,41.247446 C 35.328626,41.247446 38.179354,42.651912 40.243022,44.922264 L 44.251359,40.51248 C 41.155854,37.106956 36.902029,34.97576 32.181818,34.97576 z"
       id="path3184" />
    <path
       style="fill:#999999;fill-opacity:1;fill-rule:nonzero;stroke:none;stroke-width:3.125;stroke-linecap:round;stroke-linejoin:round;marker:none;marker-start:none;marker-mid:none;marker-end:none;stroke-miterlimit:4;stroke-dasharray:none;stroke-dashoffset:0;stroke-opacity:1;visibility:visible;display:inline;overflow:visible;enable-background:accumulate"
       d="M 32.181818,22.432384 C 24.314793,22.432384 17.210243,25.968047 12.051073,31.643925 L 16.059408,36.053704 C 20.186745,31.513004 25.888195,28.704071 32.181818,28.704071 C 38.475441,28.704071 44.176892,31.513004 48.30423,36.053704 L 52.312562,31.643925 C 47.153392,25.968047 40.048843,22.432384 32.181818,22.432384 z"
       id="path3192" />
    <path
       style="fill:#999999;fill-opacity:1;fill-rule:nonzero;stroke:none;stroke-width:3.125;stroke-linecap:round;stroke-linejoin:round;marker:none;marker-start:none;marker-mid:none;marker-end:none;stroke-miterlimit:4;stroke-dasharray:none;stroke-dashoffset:0;stroke-opacity:1;visibility:visible;display:inline;overflow:visible;enable-background:accumulate"
       d="M 32.181818,9.8890093 C 21.167988,9.8890093 11.212708,14.829138 3.9898676,22.775366 L 7.998201,27.185147 C 14.189208,20.374096 22.741391,16.160695 32.181818,16.160695 C 41.622244,16.160695 50.174428,20.374096 56.365434,27.185147 L 60.373768,22.775366 C 53.150928,14.829138 43.195647,9.8890093 32.181818,9.8890093 z"
       id="path3197" />
  </g>
</svg>
