<?xml version="1.0" standalone="no"?><!DOCTYPE svg PUBLIC "-//W3C//DTD SVG 1.1//EN" "http://www.w3.org/Graphics/SVG/1.1/DTD/svg11.dtd"><svg t="1545103464043" class="icon" style="" viewBox="0 0 1024 1024" version="1.1" xmlns="http://www.w3.org/2000/svg" p-id="4440" data-spm-anchor-id="a313x.7781069.0.i0" xmlns:xlink="http://www.w3.org/1999/xlink" width="200" height="200"><defs><style type="text/css"></style></defs><path d="M512.506151 1024c-44.314881 0-88.94264-5.830905-133.00153-17.634933C106.845796 933.265423-55.566253 652.102009 17.504947 379.528513A508.454952 508.454952 0 0 1 256.0032 68.812364 508.910047 508.910047 0 0 1 644.483718 17.671057c272.630382 73.014313 435.04243 354.177728 361.999674 626.779666a513.119676 513.119676 0 0 1-57.597968 133.940164 25.599097 25.599097 0 0 1-43.746013-26.623061 461.210396 461.210396 0 0 0 51.880837-120.571747 457.654966 457.654966 0 0 0-46.021488-349.513003 457.654966 457.654966 0 0 0-279.769686-214.605762A457.9394 457.9394 0 0 0 281.602297 113.155688a457.569636 457.569636 0 0 0-214.662649 279.655912C1.178412 638.107836 147.349256 891.197574 392.702378 956.930366c122.676561 32.909061 250.302281 14.278607 359.24066-52.250601a25.599097 25.599097 0 0 1 26.736835 43.689125C696.705876 998.37246 605.288656 1024 512.477708 1024zM511.99417 588.758465a25.570653 25.570653 0 0 1-25.599097-25.599096V281.739963a25.599097 25.599097 0 1 1 51.198193 0V563.216255c0 14.13639-11.462707 25.599097-25.599096 25.599097z m0 76.768848a25.599097 25.599097 0 0 1 25.599096 25.599097v51.16975a25.599097 25.599097 0 0 1-51.198193 0v-51.198194a25.599097 25.599097 0 0 1 25.599097-25.599097z" p-id="4441" fill="#d81e06"></path></svg>