<?xml version="1.0" encoding="UTF-8"?>
<svg width="28px" height="14px" viewBox="0 0 28 14" version="1.1" xmlns="http://www.w3.org/2000/svg" xmlns:xlink="http://www.w3.org/1999/xlink">
    <!-- Generator: Sketch 51.2 (57519) - http://www.bohemiancoding.com/sketch -->
    <title>icon-beta</title>
    <desc>Created with Sketch.</desc>
    <defs></defs>
    <g id="Page-2" stroke="none" stroke-width="1" fill="none" fill-rule="evenodd">
        <path d="M2,0 L26,0 C27.1045695,-2.16501571e-15 28,0.8954305 28,2 L28,12 C28,13.1045695 27.1045695,14 26,14 L2,14 C0.8954305,14 1.3527075e-16,13.1045695 0,12 L0,2 C-1.3527075e-16,0.8954305 0.8954305,2.02906125e-16 2,0 Z M4,3.4 L4,10.54 L7.28,10.54 C7.7400023,10.54 8.136665,10.4883339 8.47,10.385 C8.803335,10.2816662 9.0766656,10.1416676 9.29,9.965 C9.5033344,9.78833245 9.6599995,9.57833455 9.76,9.335 C9.8600005,9.09166545 9.91,8.8300014 9.91,8.55 C9.91,8.0633309 9.7966678,7.65833495 9.57,7.335 C9.3433322,7.01166505 9.0100022,6.8033338 8.57,6.71 L8.57,6.69 C8.8966683,6.5499993 9.14833245,6.35166795 9.325,6.095 C9.50166755,5.83833205 9.59,5.5300018 9.59,5.17 C9.59,4.5766637 9.3966686,4.1333348 9.01,3.84 C8.6233314,3.5466652 8.1100032,3.4 7.47,3.4 L4,3.4 Z M11.77,8.25 L15.57,8.25 C15.6166669,7.8633314 15.5916671,7.48833515 15.495,7.125 C15.3983328,6.76166485 15.2433344,6.4400014 15.03,6.16 C14.8166656,5.8799986 14.548335,5.65500085 14.225,5.485 C13.901665,5.31499915 13.5366687,5.23 13.13,5.23 C12.7433314,5.23 12.3966682,5.3033326 12.09,5.45 C11.7833318,5.5966674 11.5216678,5.79499875 11.305,6.045 C11.0883322,6.29500125 10.9216672,6.58499835 10.805,6.915 C10.6883327,7.24500165 10.63,7.5933315 10.63,7.96 C10.63,8.360002 10.6849994,8.726665 10.795,9.06 C10.9050005,9.393335 11.0683322,9.6799988 11.285,9.92 C11.5016677,10.1600012 11.7666651,10.346666 12.08,10.48 C12.3933349,10.613334 12.7533313,10.68 13.16,10.68 C13.4400014,10.68 13.708332,10.6416671 13.965,10.565 C14.2216679,10.488333 14.4533323,10.3750008 14.66,10.225 C14.8666677,10.0749993 15.0433326,9.8900011 15.19,9.67 C15.3366674,9.4499989 15.4399997,9.2000014 15.5,8.92 L14.42,8.92 C14.3199995,9.2066681 14.1683343,9.42166595 13.965,9.565 C13.7616656,9.70833405 13.493335,9.78 13.16,9.78 C12.9199988,9.78 12.7133342,9.73833375 12.54,9.655 C12.3666658,9.57166625 12.2233339,9.4600007 12.11,9.32 C11.9966661,9.1799993 11.9116669,9.0166676 11.855,8.83 C11.7983331,8.6433324 11.77,8.450001 11.77,8.25 Z M15.92,5.37 L15.92,6.22 L16.78,6.22 L16.78,9.27 C16.7866667,9.4833344 16.8083332,9.6733325 16.845,9.84 C16.8816668,10.0066675 16.9516662,10.1449995 17.055,10.255 C17.1583338,10.3650006 17.3016658,10.4483331 17.485,10.505 C17.6683343,10.561667 17.9099985,10.59 18.21,10.59 C18.3366673,10.59 18.4599994,10.5833334 18.58,10.57 C18.7000006,10.5566666 18.8233327,10.5433334 18.95,10.53 L18.95,9.65 C18.8699996,9.6700001 18.7900004,9.68166665 18.71,9.685 C18.6299996,9.68833335 18.5500004,9.69 18.47,9.69 C18.3433327,9.69 18.2433337,9.67500015 18.17,9.645 C18.0966663,9.61499985 18.0416669,9.5700003 18.005,9.51 C17.9683332,9.4499997 17.9450001,9.3766671 17.935,9.29 C17.9249999,9.2033329 17.92,9.1000006 17.92,8.98 L17.92,6.22 L18.95,6.22 L18.95,5.37 L17.92,5.37 L17.92,3.82 L16.78,3.82 L16.78,5.37 L15.92,5.37 Z M24.1,9.39 L24.1,6.73 C24.1,6.4566653 24.0400006,6.22500095 23.92,6.035 C23.7999994,5.84499905 23.6416676,5.6900006 23.445,5.57 C23.2483324,5.4499994 23.0266679,5.3633336 22.78,5.31 C22.5333321,5.2566664 22.2833346,5.23 22.03,5.23 C21.7433319,5.23 21.4633347,5.2566664 21.19,5.31 C20.9166653,5.3633336 20.6716677,5.456666 20.455,5.59 C20.2383322,5.723334 20.0600007,5.8999989 19.92,6.12 C19.7799993,6.3400011 19.7000001,6.616665 19.68,6.95 L20.82,6.95 C20.8466668,6.6699986 20.9633323,6.463334 21.17,6.33 C21.3766677,6.196666 21.6399984,6.13 21.96,6.13 C22.0733339,6.13 22.1933327,6.13833325 22.32,6.155 C22.4466673,6.17166675 22.5616661,6.20499975 22.665,6.255 C22.7683339,6.30500025 22.8549996,6.3766662 22.925,6.47 C22.9950003,6.5633338 23.03,6.6833326 23.03,6.83 C23.03,6.9966675 22.9883337,7.12166625 22.905,7.205 C22.8216662,7.28833375 22.708334,7.3499998 22.565,7.39 C22.4216659,7.4300002 22.2566676,7.45833325 22.07,7.475 C21.8833324,7.49166675 21.6866677,7.5199998 21.48,7.56 C21.2399988,7.5866668 21.0016678,7.62499975 20.765,7.675 C20.5283322,7.72500025 20.3150009,7.8066661 20.125,7.92 C19.934999,8.0333339 19.7816672,8.189999 19.665,8.39 C19.5483327,8.590001 19.49,8.8499984 19.49,9.17 C19.49,9.4233346 19.5383329,9.64499905 19.635,9.835 C19.7316671,10.025001 19.8616658,10.1816661 20.025,10.305 C20.1883341,10.428334 20.3766656,10.5216664 20.59,10.585 C20.8033344,10.6483337 21.0266655,10.68 21.26,10.68 C21.5666682,10.68 21.8849983,10.6300005 22.215,10.53 C22.5450016,10.4299995 22.8233322,10.2700011 23.05,10.05 C23.0966669,10.2833345 23.1966659,10.4466662 23.35,10.54 C23.5033341,10.6333338 23.6966655,10.68 23.93,10.68 C23.9766669,10.68 24.033333,10.6766667 24.1,10.67 C24.166667,10.6633333 24.233333,10.6533334 24.3,10.64 C24.366667,10.6266666 24.4316663,10.6116668 24.495,10.595 C24.5583336,10.5783333 24.6099998,10.5633334 24.65,10.55 L24.65,9.76 C24.5899997,9.7733334 24.5366669,9.78 24.49,9.78 L24.37,9.78 C24.2633328,9.78 24.1916668,9.7500003 24.155,9.69 C24.1183331,9.6299997 24.1,9.5300007 24.1,9.39 Z M5.25,6.39 L7.29,6.39 C7.5900015,6.39 7.839999,6.30500085 8.04,6.135 C8.240001,5.96499915 8.34,5.7200016 8.34,5.4 C8.34,5.0399982 8.2500009,4.7866674 8.07,4.64 C7.8899991,4.4933326 7.6300017,4.42 7.29,4.42 L5.25,4.42 L5.25,6.39 Z M5.25,9.52 L7.46,9.52 C7.8400019,9.52 8.13499895,9.42166765 8.345,9.225 C8.55500105,9.02833235 8.66,8.7500018 8.66,8.39 C8.66,8.0366649 8.55500105,7.76500095 8.345,7.575 C8.13499895,7.38499905 7.8400019,7.29 7.46,7.29 L5.25,7.29 L5.25,9.52 Z M14.43,7.5 C14.4166666,7.3199991 14.3783337,7.1466675 14.315,6.98 C14.2516664,6.8133325 14.1650005,6.66833395 14.055,6.545 C13.9449995,6.42166605 13.8116674,6.32166705 13.655,6.245 C13.4983325,6.16833295 13.3233343,6.13 13.13,6.13 C12.929999,6.13 12.7483342,6.16499965 12.585,6.235 C12.4216658,6.30500035 12.2816672,6.40166605 12.165,6.525 C12.0483327,6.64833395 11.9550003,6.7933325 11.885,6.96 C11.8149996,7.1266675 11.7766667,7.3066657 11.77,7.5 L14.43,7.5 Z M22.96,7.95 C22.7866658,8.0633339 22.5733346,8.13166655 22.32,8.155 C22.0666654,8.17833345 21.8133346,8.2133331 21.56,8.26 C21.4399994,8.2800001 21.3233339,8.30833315 21.21,8.345 C21.0966661,8.38166685 20.9966671,8.43166635 20.91,8.495 C20.8233329,8.55833365 20.7550003,8.64166615 20.705,8.745 C20.6549997,8.84833385 20.63,8.9733326 20.63,9.12 C20.63,9.2466673 20.6666663,9.3533329 20.74,9.44 C20.8133337,9.5266671 20.9016661,9.59499975 21.005,9.645 C21.1083339,9.69500025 21.221666,9.7299999 21.345,9.75 C21.4683339,9.7700001 21.5799995,9.78 21.68,9.78 C21.8066673,9.78 21.9433326,9.7633335 22.09,9.73 C22.2366674,9.6966665 22.3749993,9.6400004 22.505,9.56 C22.6350006,9.4799996 22.7433329,9.37833395 22.83,9.255 C22.9166671,9.13166605 22.96,8.9800009 22.96,8.8 L22.96,7.95 Z" id="icon-beta" fill="#B6B6B6" fill-rule="nonzero"></path>
    </g>
</svg>