<?xml version="1.0" encoding="UTF-8"?>
<svg width="98px" height="42px" viewBox="0 0 98 42" version="1.1" xmlns="http://www.w3.org/2000/svg" xmlns:xlink="http://www.w3.org/1999/xlink">
    <!-- Generator: Sketch 51.2 (57519) - http://www.bohemiancoding.com/sketch -->
    <title>icon-animation-rebound</title>
    <desc>Created with Sketch.</desc>
    <defs></defs>
    <g id="Page-2" stroke="none" stroke-width="1" fill="none" fill-rule="evenodd">
        <g id="icon-animation-rebound">
            <rect id="Rectangle-25" fill="#CCF4DF" x="0" y="0" width="98" height="42"></rect>
            <rect id="Rectangle-26" fill="#00C75D" fill-rule="nonzero" x="34" y="10" width="30" height="22" rx="2"></rect>
            <path d="M69.4263671,13 L67.6634106,14.3333333 C66.927031,14.8902612 66.7815565,15.9386941 67.3384844,16.6750738 C67.4313201,16.7978228 67.5406616,16.9071642 67.6634106,17 L67.6634106,17 C68.3997903,17.5569279 68.5452647,18.6053608 67.9883369,19.3417404 C67.8955011,19.4644895 67.7861597,19.5738309 67.6634106,19.6666667 L67.6634106,19.6666667 C66.927031,20.2235945 66.7815565,21.2720274 67.3384844,22.0084071 C67.4313201,22.1311561 67.5406616,22.2404976 67.6634106,22.3333333 L67.6634106,22.3333333 C68.3997903,22.8902612 68.5452647,23.9386941 67.9883369,24.6750738 C67.8955011,24.7978228 67.7861597,24.9071642 67.6634106,25 L67.6634106,25 C66.927031,25.5569279 66.7815565,26.6053608 67.3384844,27.3417404 C67.4313201,27.4644895 67.5406616,27.5738309 67.6634106,27.6666667 L69.4263671,29" id="Path-3" stroke="#00C75D" stroke-linecap="round" fill-rule="nonzero" transform="translate(68.213184, 21.000000) scale(-1, 1) translate(-68.213184, -21.000000) "></path>
            <path d="M31,13 L29.2370436,14.3333333 C28.5006639,14.8902612 28.3551894,15.9386941 28.9121173,16.6750738 C29.0049531,16.7978228 29.1142945,16.9071642 29.2370436,17 L29.2370436,17 C29.9734232,17.5569279 30.1188977,18.6053608 29.5619698,19.3417404 C29.469134,19.4644895 29.3597926,19.5738309 29.2370436,19.6666667 L29.2370436,19.6666667 C28.5006639,20.2235945 28.3551894,21.2720274 28.9121173,22.0084071 C29.0049531,22.1311561 29.1142945,22.2404976 29.2370436,22.3333333 L29.2370436,22.3333333 C29.9734232,22.8902612 30.1188977,23.9386941 29.5619698,24.6750738 C29.469134,24.7978228 29.3597926,24.9071642 29.2370436,25 L29.2370436,25 C28.5006639,25.5569279 28.3551894,26.6053608 28.9121173,27.3417404 C29.0049531,27.4644895 29.1142945,27.5738309 29.2370436,27.6666667 L31,29" id="Path-3" stroke="#00C75D" stroke-linecap="round" fill-rule="nonzero"></path>
        </g>
    </g>
</svg>