<?xml version="1.0" encoding="UTF-8"?>
<svg width="26px" height="14px" viewBox="0 0 26 14" version="1.1" xmlns="http://www.w3.org/2000/svg" xmlns:xlink="http://www.w3.org/1999/xlink">
    <!-- Generator: Sketch 50 (54983) - http://www.bohemiancoding.com/sketch -->
    <title>pro</title>
    <desc>Created with Sketch.</desc>
    <defs>
        <linearGradient x1="100%" y1="0%" x2="0%" y2="100%" id="linearGradient-1">
            <stop stop-color="#FFED23" offset="0%"></stop>
            <stop stop-color="#FF4E50" offset="100%"></stop>
        </linearGradient>
    </defs>
    <g id="Page-1" stroke="none" stroke-width="1" fill="none" fill-rule="evenodd">
        <path d="M0,7 C0,3.13400675 3.13620749,0 7.00172495,0 L18.998275,0 C22.865221,0 26,3.14187327 26,7 C26,10.8659932 22.8637925,14 18.998275,14 L7.00172495,14 C3.13477904,14 0,10.8581267 0,7 Z M1.4,6.9999999 C1.4,10.0865012 3.907779,12.5999998 7.00128117,12.5999998 L18.9987188,12.5999998 C22.0951507,12.5999998 24.6,10.0927945 24.6,6.9999999 C24.6,3.91349857 22.092221,1.4 18.9987188,1.4 L7.00128117,1.4 C3.90484932,1.4 1.4,3.90720536 1.4,6.9999999 Z M5.7,3.86 L8.66,3.86 C10.38,3.86 11.25,4.59 11.25,6.05 C11.25,7.52 10.38,8.26 8.64,8.26 L6.87,8.26 L6.87,11 L5.7,11 L5.7,3.86 Z M6.87,4.86 L6.87,7.26 L8.57,7.26 C9.09,7.26 9.47,7.16 9.71,6.98 C9.95,6.79 10.07,6.48 10.07,6.05 C10.07,5.62 9.94,5.32 9.7,5.14 C9.46,4.95 9.08,4.86 8.57,4.86 L6.87,4.86 Z M14.59,5.69 C14.84,5.69 15.06,5.73 15.24,5.82 L15.24,6.96 C14.98,6.88 14.74,6.85 14.5,6.85 C14.2,6.85 13.93,6.96 13.69,7.2 C13.41,7.47 13.28,7.82 13.28,8.26 L13.28,11 L12.15,11 L12.15,5.83 L13.28,5.83 L13.28,6.57 C13.42,6.31 13.58,6.11 13.77,5.97 C14,5.78 14.27,5.69 14.59,5.69 Z M18.29,5.69 C19.07,5.69 19.7,5.94 20.18,6.46 C20.65,6.97 20.89,7.62 20.89,8.42 C20.89,9.21 20.65,9.86 20.19,10.36 C19.71,10.88 19.07,11.14 18.29,11.14 C17.5,11.14 16.87,10.88 16.39,10.36 C15.92,9.86 15.69,9.21 15.69,8.42 C15.69,7.62 15.92,6.97 16.4,6.46 C16.87,5.94 17.5,5.69 18.29,5.69 Z M18.29,6.62 C17.81,6.62 17.45,6.8 17.19,7.18 C16.97,7.5 16.86,7.92 16.86,8.42 C16.86,8.92 16.97,9.33 17.19,9.65 C17.45,10.02 17.81,10.21 18.29,10.21 C18.76,10.21 19.13,10.02 19.39,9.65 C19.61,9.32 19.73,8.91 19.73,8.42 C19.73,7.92 19.61,7.5 19.39,7.18 C19.13,6.8 18.76,6.62 18.29,6.62 Z" id="pro" fill="url(#linearGradient-1)"></path>
    </g>
</svg>