<?xml version="1.0" encoding="UTF-8" standalone="no"?>
<!-- Created with Inkscape (http://www.inkscape.org/) -->
<svg
   xmlns:dc="http://purl.org/dc/elements/1.1/"
   xmlns:cc="http://creativecommons.org/ns#"
   xmlns:rdf="http://www.w3.org/1999/02/22-rdf-syntax-ns#"
   xmlns:svg="http://www.w3.org/2000/svg"
   xmlns="http://www.w3.org/2000/svg"
   xmlns:sodipodi="http://sodipodi.sourceforge.net/DTD/sodipodi-0.dtd"
   xmlns:inkscape="http://www.inkscape.org/namespaces/inkscape"
   width="200"
   height="200"
   id="svg2"
   sodipodi:version="0.32"
   inkscape:version="0.46"
   sodipodi:docname="dial2.svg"
   inkscape:output_extension="org.inkscape.output.svg.inkscape"
   version="1.0">
  <defs
     id="defs4" />
  <sodipodi:namedview
     id="base"
     pagecolor="#ffffff"
     bordercolor="#666666"
     borderopacity="1.0"
     inkscape:pageopacity="0.0"
     inkscape:pageshadow="2"
     inkscape:zoom="16"
     inkscape:cx="15.415427"
     inkscape:cy="202.92835"
     inkscape:document-units="px"
     inkscape:current-layer="layer1"
     showgrid="false"
     inkscape:window-width="1152"
     inkscape:window-height="810"
     inkscape:window-x="758"
     inkscape:window-y="25"
     showguides="true"
     inkscape:guide-bbox="true" />
  <metadata
     id="metadata7">
    <rdf:RDF>
      <cc:Work
         rdf:about="">
        <dc:format>image/svg+xml</dc:format>
        <dc:type
           rdf:resource="http://purl.org/dc/dcmitype/StillImage" />
      </cc:Work>
    </rdf:RDF>
  </metadata>
  <g
     inkscape:label="Calque 1"
     inkscape:groupmode="layer"
     id="layer1"
     transform="translate(-309.64128,-239.22243)">
    <path
       sodipodi:nodetypes="cssscc"
       id="path5515"
       d="M 309.67781,236.7433 C 309.67781,236.7433 327.01853,236.7433 329.77866,236.7433 C 332.53877,236.7433 333.97883,238.35616 333.97883,239.2778 C 333.97883,240.19943 332.53189,241.77857 329.77522,241.77857 C 326.95789,241.77857 309.67781,241.77857 309.67781,241.77857 L 309.67781,236.7433 z"
       style="fill:#660000;fill-opacity:0.75652179;fill-rule:evenodd;stroke:none;stroke-width:1px;stroke-linecap:butt;stroke-linejoin:miter;stroke-opacity:1;display:inline" />
    <path
       sodipodi:nodetypes="cssscc"
       id="path3080"
       d="M 309.62185,237.0621 C 309.62185,237.0621 326.70767,237.0621 329.42723,237.0621 C 332.14676,237.0621 333.56566,238.45652 333.56566,239.25333 C 333.56566,240.05014 332.13998,241.41541 329.42383,241.41541 C 326.64793,241.41541 309.62185,241.41541 309.62185,241.41541 L 309.62185,237.0621 z"
       style="fill:#c80000;fill-opacity:1;fill-rule:evenodd;stroke:none;stroke-width:1px;stroke-linecap:butt;stroke-linejoin:miter;stroke-opacity:1" />
    <g
       id="layer3"
       inkscape:label="Intermédiaire"
       style="display:inline"
       transform="matrix(0.6546279,0,0,0.7378188,309.90354,239.15744)">
      <path
         style="fill:#ea0000;fill-opacity:0.82173923;fill-rule:evenodd;stroke:none;stroke-width:1px;stroke-linecap:butt;stroke-linejoin:miter;stroke-opacity:1;display:inline"
         d="M 0.12963253,-2.1534508 C 0.12963253,-2.1534508 24.915361,-2.1534508 28.860508,-2.1534508 C 32.805635,-2.1534508 34.863968,-0.70942084 34.863968,0.11573689 C 34.863968,0.94089461 32.795797,2.3547294 28.855589,2.3547294 C 24.828692,2.3547294 0.12963253,2.3547294 0.12963253,2.3547294 L 0.12963253,-2.1534508 z"
         id="path3852"
         sodipodi:nodetypes="cssscc" />
    </g>
  </g>
</svg>
